<?xml version="1.0" standalone="no"?>
<!DOCTYPE svg PUBLIC "-//W3C//DTD SVG 20010904//EN"
 "http://www.w3.org/TR/2001/REC-SVG-20010904/DTD/svg10.dtd">
<svg version="1.0" xmlns="http://www.w3.org/2000/svg"
 width="900.000000pt" height="900.000000pt" viewBox="0 0 900.000000 900.000000"
 preserveAspectRatio="xMidYMid meet">

<g transform="translate(0.000000,900.000000) scale(0.100000,-0.100000)"
fill="#000000" stroke="none">
<path d="M2586 8963 c46 -110 77 -202 99 -290 27 -109 30 -127 15 -118 -5 3
-10 -3 -10 -14 0 -12 6 -21 13 -21 16 0 33 -34 42 -84 4 -19 13 -40 20 -46 18
-15 10 -79 -14 -101 -11 -10 -31 -42 -45 -70 -14 -28 -41 -74 -60 -102 -18
-29 -53 -88 -76 -132 -24 -44 -49 -89 -56 -100 -18 -26 -18 -35 2 -35 12 0 15
-7 12 -30 -3 -16 -1 -30 4 -30 4 0 8 -15 8 -34 0 -19 4 -37 9 -40 5 -3 11 -19
13 -36 4 -25 1 -31 -19 -36 -32 -9 -31 -38 2 -32 14 3 30 -1 36 -8 9 -11 4
-14 -27 -15 l-39 -1 35 -11 c45 -14 45 -13 26 -33 -15 -15 -15 -18 -1 -33 18
-21 20 -55 3 -48 -7 2 -12 9 -11 15 1 6 -11 15 -28 21 -17 6 -28 15 -24 21 3
6 -4 10 -17 10 -19 0 -20 2 -8 10 11 8 7 9 -15 4 -16 -4 -32 -11 -33 -16 -2
-4 -7 -6 -12 -3 -12 8 13 55 30 56 8 1 24 0 35 -1 19 -2 19 -1 2 17 -9 11 -15
22 -12 25 3 3 -1 8 -9 11 -9 4 -18 2 -21 -3 -9 -15 -57 -12 -52 3 2 6 -3 18
-12 24 -14 11 -14 14 -1 23 13 8 13 10 -2 10 -10 0 -18 7 -18 15 0 9 9 15 21
15 26 0 20 24 -7 29 -18 3 -34 18 -34 33 0 5 15 14 33 22 l32 14 -33 1 c-26 1
-33 5 -30 19 2 9 -5 22 -17 29 -11 7 -15 12 -8 13 8 0 8 9 0 36 -10 32 -9 38
8 50 18 13 18 14 0 34 -12 13 -25 18 -38 14 -18 -6 -19 -3 -13 26 l6 33 -45
-5 c-29 -4 -48 -1 -55 7 -13 16 11 38 34 29 9 -3 16 -2 16 4 0 6 -6 12 -12 15
-10 3 -10 7 1 20 10 13 10 17 1 17 -7 0 -10 7 -6 15 3 9 0 15 -8 15 -8 0 -21
3 -29 6 -9 3 -16 -3 -20 -16 -3 -12 -10 -19 -15 -16 -6 3 -12 1 -14 -6 -3 -9
-9 -8 -22 5 -22 22 -29 22 -18 0 15 -29 3 -43 -34 -43 -40 0 -74 -15 -74 -32
0 -6 -7 -20 -17 -30 -9 -10 -16 -32 -15 -50 0 -17 -6 -47 -14 -67 -9 -21 -11
-37 -5 -41 6 -3 9 -19 7 -35 -1 -17 3 -41 9 -55 7 -14 9 -34 5 -45 -4 -11 -4
-24 0 -30 13 -18 17 -52 8 -68 -6 -12 -3 -22 11 -36 20 -20 20 -20 -1 -35 -12
-8 -25 -13 -30 -10 -4 3 -8 0 -8 -5 0 -6 7 -11 15 -11 20 0 46 -52 34 -71 -13
-20 -11 -39 4 -36 6 1 11 -4 9 -12 -1 -7 5 -19 14 -26 15 -11 15 -13 -7 -20
-21 -6 -22 -8 -5 -12 15 -4 16 -7 5 -14 -12 -8 -12 -10 0 -18 7 -5 14 -26 15
-47 1 -22 7 -49 14 -60 6 -12 9 -24 6 -27 -3 -3 6 -27 19 -53 14 -27 33 -67
42 -89 101 -232 116 -258 157 -263 18 -2 35 -8 36 -13 2 -5 8 -7 13 -4 5 4 17
1 26 -4 15 -8 15 -11 3 -12 -8 -1 -19 -1 -24 0 -4 1 -15 -4 -24 -11 -12 -10
-14 -10 -8 0 5 8 0 12 -16 12 l-22 0 22 -16 c12 -8 22 -22 22 -31 0 -12 3 -13
14 -4 11 9 14 8 12 -6 0 -11 5 -17 17 -17 9 1 17 -2 17 -7 0 -5 -3 -9 -7 -9
-5 0 -16 -7 -26 -14 -21 -17 -13 -42 16 -50 18 -5 19 -8 8 -15 -8 -5 -21 -7
-30 -4 -12 5 -13 3 -5 -6 6 -7 21 -13 33 -14 25 -2 47 -32 31 -42 -6 -4 -8
-11 -4 -16 3 -5 9 -7 14 -4 5 3 11 -8 15 -24 3 -16 13 -35 21 -42 8 -6 14 -17
14 -23 0 -6 -5 -4 -10 4 -7 11 -10 7 -10 -17 0 -20 5 -33 13 -33 8 0 7 -4 -3
-10 -9 -6 -11 -10 -3 -10 7 0 10 -6 7 -14 -3 -9 -12 -12 -22 -9 -9 4 -2 -8 16
-25 42 -40 40 -70 -6 -94 -18 -9 -29 -19 -23 -22 6 -4 8 -13 4 -21 -3 -8 0
-15 6 -15 6 0 11 -7 11 -15 0 -8 -7 -15 -16 -15 -10 0 -14 -5 -10 -16 3 -8 2
-12 -3 -9 -5 3 -12 1 -16 -5 -3 -5 2 -10 12 -10 10 0 23 8 30 19 8 13 19 17
37 14 28 -6 34 -18 14 -26 -10 -3 -10 -8 -2 -16 14 -15 47 -3 40 15 -3 8 1 14
10 14 8 0 12 5 9 11 -4 6 3 21 15 34 18 20 21 27 11 39 -14 17 3 32 32 28 10
-2 17 3 17 12 0 9 5 16 10 16 6 0 10 -5 10 -12 0 -6 3 -8 7 -5 3 4 -2 16 -12
27 -24 26 -1 26 25 0 25 -25 27 -14 3 13 -17 19 -17 20 0 14 15 -6 22 3 18 26
-2 13 11 8 25 -10 13 -17 14 -17 8 0 -7 19 5 23 24 7 9 -7 9 -7 3 1 -13 15 15
43 35 35 9 -4 22 6 35 27 12 17 19 24 15 15 -3 -10 -1 -18 3 -18 5 0 11 5 13
12 5 13 54 14 148 4 30 -3 87 -8 125 -11 39 -3 81 -7 95 -10 14 -3 41 -1 60 5
23 7 36 7 38 0 2 -6 10 -6 21 -1 16 9 126 6 206 -5 22 -3 53 -6 68 -7 15 -1
31 -7 35 -12 12 -17 61 -35 77 -29 11 5 14 2 9 -12 -4 -11 -4 -16 1 -12 4 4
16 -2 26 -14 11 -11 19 -16 19 -10 0 7 4 12 10 12 5 0 7 -7 4 -15 -5 -13 7
-20 20 -12 6 3 66 -62 66 -73 0 -5 6 -7 14 -4 8 3 17 1 21 -5 3 -6 1 -11 -4
-11 -6 0 -11 -5 -11 -11 0 -6 6 -9 12 -7 18 6 53 -42 52 -69 -1 -13 3 -23 7
-23 5 0 9 -7 9 -15 0 -8 4 -15 8 -15 5 0 9 -6 10 -12 3 -43 10 -86 14 -94 4
-5 4 -38 2 -73 -3 -51 0 -69 14 -85 14 -16 14 -18 2 -14 -12 4 -17 -2 -18 -26
-2 -17 -7 -33 -13 -34 -6 -3 -6 -9 2 -18 8 -10 8 -14 0 -14 -6 0 -10 -3 -10
-7 3 -21 -2 -33 -12 -27 -8 5 -8 1 0 -14 8 -15 7 -23 -3 -31 -8 -7 -17 -22
-20 -35 -6 -25 -63 -119 -89 -148 -9 -9 -12 -19 -9 -23 4 -3 -1 -3 -11 1 -11
4 -17 1 -17 -8 0 -15 -46 -68 -60 -68 -19 0 -25 -3 -37 -19 -6 -9 -9 -19 -7
-23 3 -5 -2 -8 -11 -8 -22 0 -135 -61 -135 -73 0 -5 -7 -4 -15 3 -12 10 -15
10 -15 0 0 -10 -3 -10 -14 -1 -11 9 -15 9 -18 0 -4 -12 -31 -18 -115 -24 -29
-2 -60 -8 -70 -13 -10 -5 -24 -7 -30 -5 -7 3 -13 0 -13 -7 0 -6 -4 -9 -8 -6
-5 3 -25 1 -44 -4 -19 -6 -50 -12 -69 -15 -66 -10 -76 -12 -85 -18 -6 -3 -34
-8 -64 -12 -30 -3 -57 -10 -58 -16 -2 -5 -8 -6 -13 -3 -6 3 -5 12 3 22 12 14
10 14 -11 3 -13 -7 -21 -8 -17 -3 10 17 -14 25 -31 10 -15 -11 -16 -11 -10 5
5 13 1 17 -18 17 -14 0 -25 5 -25 11 0 5 -4 7 -10 4 -6 -3 -10 4 -10 16 0 12
-3 19 -7 15 -5 -4 -8 -12 -8 -18 0 -6 -10 -13 -23 -15 -22 -3 -22 -2 -7 14 15
15 15 17 1 25 -9 5 -20 7 -24 4 -5 -3 -8 5 -8 16 1 18 -5 22 -29 23 -16 0 -36
4 -42 8 -7 5 -18 5 -23 2 -6 -4 -16 6 -23 22 -11 25 -16 28 -50 26 -24 -2 -36
0 -32 7 3 5 19 10 36 10 16 0 29 4 29 9 0 13 -30 22 -51 16 -26 -8 -31 8 -13
44 16 32 31 43 20 15 -5 -14 -4 -15 9 -4 13 11 12 14 -7 30 -12 10 -28 15 -35
13 -7 -3 -13 0 -13 6 0 6 -10 11 -22 12 -15 0 -18 2 -8 6 8 3 21 11 29 17 11
9 5 12 -30 16 -39 4 -58 23 -26 26 6 1 19 2 27 3 8 1 1 8 -16 15 -18 8 -35 19
-38 25 -14 22 -22 10 -19 -29 1 -25 -2 -40 -10 -40 -7 -1 -1 -7 12 -14 16 -9
20 -15 12 -21 -7 -4 -10 -13 -7 -21 3 -7 -2 -20 -10 -29 -10 -9 -11 -15 -4
-15 9 0 10 -17 5 -60 -5 -44 -4 -60 5 -60 7 0 10 -7 6 -16 -3 -8 -2 -12 4 -9
6 4 10 -7 10 -24 0 -17 5 -31 11 -31 6 0 9 -6 6 -14 -7 -19 12 -89 27 -99 8
-5 6 -11 -6 -21 -23 -17 -23 -25 0 -20 12 4 21 -4 29 -26 15 -39 7 -63 -15
-51 -34 17 -112 -6 -112 -33 0 -6 5 -4 10 4 8 13 14 13 44 -4 19 -10 37 -25
40 -33 3 -8 1 -11 -4 -8 -6 3 -10 2 -10 -4 0 -5 -8 -11 -17 -14 -14 -3 -12 -6
10 -15 15 -6 27 -13 27 -15 0 -2 -18 -4 -40 -5 -30 -2 -40 1 -40 13 0 9 -9 15
-25 15 -14 0 -25 -4 -25 -10 0 -13 49 -44 57 -36 4 3 17 -1 29 -9 20 -13 23
-13 18 -1 -4 11 0 13 15 9 34 -9 27 -49 -10 -62 -32 -11 -49 -8 -49 11 0 5 7
8 15 4 8 -3 15 0 15 7 0 19 -37 18 -45 0 -3 -9 0 -20 6 -24 6 -4 8 -12 5 -18
-4 -6 1 -14 11 -17 10 -3 25 -9 35 -14 11 -6 18 -5 21 4 3 7 13 12 24 11 22
-1 64 -24 46 -25 -7 0 -13 -4 -13 -10 0 -5 6 -7 13 -4 7 2 24 -4 37 -16 26
-22 50 -26 67 -9 6 6 16 8 22 5 25 -16 8 -23 -51 -22 -41 1 -62 5 -61 12 1 7
-8 14 -21 16 -17 4 -23 0 -22 -13 2 -33 84 -93 112 -82 13 5 16 3 11 -10 -4
-11 1 -20 13 -27 28 -15 38 -12 16 5 -23 17 -2 21 24 5 11 -6 16 -5 20 5 3 9
10 11 19 6 10 -7 11 -13 2 -30 -10 -17 -9 -21 3 -21 8 0 17 6 19 13 3 6 6 3 7
-8 1 -19 1 -19 15 -1 13 17 18 14 87 -53 40 -39 78 -71 86 -71 7 0 10 -5 7
-10 -7 -12 59 -91 84 -102 9 -4 12 -7 8 -7 -11 -1 47 -83 72 -100 11 -8 18
-18 15 -23 -3 -4 2 -8 10 -8 9 0 16 -8 16 -19 0 -10 11 -30 25 -45 13 -15 29
-35 35 -46 8 -14 21 -20 45 -20 19 0 35 -5 35 -11 0 -7 -10 -9 -25 -7 -14 3
-25 2 -25 -2 0 -11 30 -21 41 -14 18 11 30 -8 13 -20 -15 -12 -15 -13 0 -19 9
-4 16 -2 16 3 0 6 5 10 11 10 8 0 7 -5 -2 -16 -10 -13 -10 -17 2 -25 8 -5 22
-9 31 -9 9 0 20 -4 23 -10 3 -6 -1 -7 -9 -4 -9 3 -16 2 -16 -4 0 -13 44 -24
65 -16 11 5 15 15 12 30 -3 15 0 21 10 17 7 -3 14 -14 14 -24 2 -23 3 -27 17
-62 7 -16 12 -34 12 -40 0 -7 10 -18 22 -26 21 -13 21 -14 3 -27 -15 -11 -16
-14 -4 -14 10 0 16 -10 16 -28 0 -37 24 -92 40 -92 7 0 12 -3 12 -7 -3 -21 2
-33 13 -27 6 4 8 3 5 -4 -11 -16 3 -42 23 -42 21 0 19 5 41 -203 13 -127 1
-285 -24 -316 -9 -12 -9 -13 1 -7 6 4 12 2 12 -3 0 -18 -28 -12 -33 7 -4 14
-6 13 -12 -6 -4 -13 -19 -28 -34 -34 -24 -9 -24 -11 -7 -17 14 -5 16 -10 8
-15 -7 -4 -10 -12 -7 -17 4 -5 -6 -10 -22 -11 -15 0 -32 -2 -38 -3 -5 -2 -19
-3 -30 -4 -18 -1 -19 -2 -2 -12 9 -5 22 -7 28 -4 10 7 35 12 100 22 33 4 37 2
41 -21 3 -14 1 -26 -4 -26 -5 0 -6 -9 -3 -21 7 -22 -18 -59 -42 -59 -7 0 -16
-7 -19 -15 -4 -8 -12 -15 -19 -15 -16 0 -47 -35 -38 -44 4 -4 0 -4 -9 -1 -10
4 -25 -2 -38 -15 -12 -12 -28 -19 -36 -16 -8 3 -14 0 -14 -7 -1 -23 -63 -81
-117 -109 -13 -6 -23 -17 -23 -23 0 -7 -16 -20 -36 -30 -26 -12 -33 -20 -25
-29 8 -10 -1 -18 -37 -34 -27 -12 -56 -22 -65 -22 -9 0 -17 -5 -17 -10 0 -11
43 -6 84 10 17 6 26 6 26 0 0 -6 -5 -10 -11 -10 -6 0 -8 -7 -5 -15 5 -13 -2
-16 -37 -14 -45 3 -92 -16 -82 -32 4 -5 1 -9 -4 -9 -6 0 -21 -10 -33 -22 -16
-16 -20 -17 -15 -5 3 9 2 17 -3 17 -6 0 -10 -4 -10 -10 0 -5 -8 -10 -17 -11
-11 0 -13 -3 -5 -6 20 -8 13 -20 -13 -22 -52 -3 -56 -4 -50 -19 4 -12 -1 -13
-26 -8 -22 4 -29 2 -26 -7 2 -6 12 -11 21 -11 9 1 16 -5 16 -13 0 -9 -6 -13
-15 -9 -8 3 -29 3 -45 -1 -30 -5 -30 -6 -10 -23 25 -21 26 -32 3 -28 -12 2
-17 -3 -15 -15 2 -9 -5 -20 -15 -24 -10 -4 -21 -11 -24 -16 -4 -5 -9 -5 -13 2
-4 6 -2 11 3 11 13 0 14 10 2 29 -8 12 -11 12 -23 0 -8 -8 -13 -19 -11 -26 4
-12 -35 -38 -44 -30 -6 7 -43 -24 -43 -36 0 -4 17 -5 38 -1 33 6 36 6 23 -9
-10 -13 -26 -16 -71 -12 -43 3 -61 1 -70 -10 -20 -25 -4 -48 30 -43 42 6 37
-7 -12 -38 -24 -15 -46 -31 -49 -36 -3 -5 -25 -11 -49 -13 -23 -3 -49 -10 -57
-17 -11 -9 -16 -9 -22 1 -6 10 -10 9 -15 -4 -3 -9 -4 -21 0 -26 3 -5 -8 -12
-25 -15 -34 -7 -37 -13 -19 -33 11 -11 9 -13 -10 -8 -17 4 -22 2 -18 -8 3 -10
0 -12 -11 -8 -12 5 -14 1 -9 -14 6 -19 2 -20 -65 -20 -60 0 -75 -4 -88 -21
-13 -16 -21 -18 -40 -11 -23 9 -23 10 -5 23 10 8 16 17 12 21 -6 6 -58 -44
-58 -56 0 -4 -11 -10 -25 -13 -16 -4 -25 -13 -25 -25 0 -18 -52 -46 -63 -35
-2 3 -7 -2 -10 -10 -4 -9 -2 -18 3 -21 15 -9 -40 -83 -99 -135 -28 -25 -54
-53 -57 -62 -7 -24 -88 -108 -103 -108 -19 0 -58 34 -54 46 3 8 -15 11 -57 8
-36 -3 -59 0 -56 5 11 17 -5 39 -35 50 -31 11 -63 5 -53 -10 3 -5 1 -9 -4 -9
-5 0 -12 -9 -15 -21 -4 -13 -10 -18 -17 -14 -9 5 -10 1 -5 -14 6 -20 -10 -31
-17 -12 -2 5 -15 7 -30 4 -24 -5 -28 -11 -30 -42 -2 -59 -3 -61 -18 -71 -8 -5
-11 -10 -6 -10 5 0 3 -7 -4 -15 -7 -8 -10 -27 -6 -42 5 -26 5 -27 -6 -5 -15
30 -30 28 -18 -2 7 -21 4 -30 -19 -55 -16 -17 -36 -31 -45 -31 -9 0 -16 -4
-16 -10 0 -5 -5 -10 -10 -10 -6 0 -10 6 -8 14 2 8 -1 15 -7 15 -12 0 -7 -32 6
-40 12 -7 -35 -29 -61 -29 -11 0 -20 -7 -20 -15 0 -8 -9 -24 -20 -35 -11 -11
-20 -29 -20 -39 0 -11 -4 -23 -10 -26 -5 -3 -10 -14 -10 -24 0 -10 -12 -30
-26 -44 -20 -21 -25 -32 -20 -53 4 -15 2 -32 -5 -40 -6 -8 -8 -14 -5 -14 4 0
0 -10 -8 -22 -12 -16 -27 -23 -56 -24 -43 -1 -65 -13 -41 -22 7 -2 22 -13 32
-23 16 -16 19 -16 19 -3 0 8 4 12 10 9 6 -3 7 1 4 9 -4 11 0 16 10 16 20 0 22
-52 3 -72 -8 -7 -12 -19 -9 -26 2 -7 1 -20 -4 -30 -4 -9 -8 -21 -9 -27 -3 -25
-19 -46 -30 -41 -7 2 -21 -2 -32 -9 -16 -13 -15 -14 15 -11 17 2 32 -1 32 -5
0 -5 -7 -9 -15 -9 -9 0 -27 -7 -40 -16 -13 -9 -29 -13 -35 -9 -6 3 -10 -3 -10
-14 0 -12 -9 -30 -20 -41 -20 -20 -20 -20 3 -17 12 1 24 5 27 9 11 14 50 -4
50 -23 0 -19 -16 -35 -22 -20 -4 12 -78 19 -75 6 1 -5 9 -10 17 -10 20 -2 59
-24 43 -25 -15 0 -17 -46 -3 -55 23 -14 7 -27 -32 -25 -61 4 -68 2 -68 -15 0
-8 -6 -15 -14 -15 -8 0 -18 -5 -22 -11 -5 -8 6 -9 35 -4 34 6 41 4 41 -10 0
-13 3 -13 21 4 12 11 27 17 34 15 17 -7 6 -54 -14 -55 -10 0 -11 -2 -3 -6 6
-2 12 -11 12 -19 0 -12 507 -14 3705 -12 l3704 3 23 23 c22 22 22 24 4 37 -10
8 -15 19 -11 25 4 7 1 16 -6 21 -12 8 -12 11 1 20 11 8 12 12 3 16 -15 6 -17
33 -3 33 16 0 11 30 -6 37 -13 5 -13 7 -2 14 10 7 9 9 -4 9 -10 0 -18 5 -18
10 0 6 20 10 45 10 25 0 45 4 45 9 0 10 -47 21 -55 13 -8 -9 -45 -10 -45 -1 0
4 11 10 25 13 14 4 25 11 25 16 0 5 -7 7 -15 4 -20 -8 -29 19 -15 45 12 23 8
26 -21 11 -15 -8 -19 -7 -19 4 0 8 5 16 12 18 7 3 2 13 -12 26 -13 12 -22 24
-19 26 2 2 26 6 52 9 27 3 51 8 54 10 13 14 -10 23 -56 21 -34 -1 -51 3 -51
11 0 6 -13 26 -29 44 -16 18 -27 39 -24 47 3 8 -3 22 -14 32 -11 9 -26 38 -33
64 -8 27 -17 48 -21 48 -6 0 -11 12 -24 63 -2 4 -3 12 -4 18 0 5 -5 7 -11 4
-5 -3 -16 0 -24 7 -11 11 -11 14 2 24 9 7 12 18 8 31 -6 18 -11 20 -35 13 -34
-10 -105 -3 -110 11 -1 6 -12 19 -23 29 -15 14 -19 26 -14 45 6 22 0 32 -34
64 -22 20 -40 44 -40 52 0 8 -9 25 -19 38 -10 13 -16 32 -14 41 3 10 -5 23
-19 32 -13 8 -29 33 -37 54 -7 21 -20 47 -28 56 -9 10 -13 26 -10 37 3 12 -1
22 -10 25 -12 5 -12 10 -4 20 8 10 5 15 -14 24 -14 6 -25 18 -25 27 0 8 -4 15
-9 15 -5 0 -8 14 -6 30 4 26 1 30 -20 30 -14 0 -25 4 -25 10 0 12 -91 10 -107
-3 -7 -5 -13 -16 -13 -24 0 -12 3 -13 14 -4 11 9 16 9 21 1 12 -19 -12 -35
-29 -21 -8 7 -20 10 -25 6 -7 -4 -9 1 -5 12 5 15 4 16 -5 3 -13 -18 -5 -50 17
-67 18 -15 10 -29 -10 -17 -7 5 -21 7 -30 6 -20 -4 -25 14 -5 21 6 2 8 8 4 13
-5 5 -15 1 -23 -10 -8 -11 -14 -14 -14 -8 0 7 -7 12 -15 12 -8 0 -15 -4 -15
-8 0 -4 -16 -14 -35 -21 -38 -13 -47 -9 -71 34 -6 11 -21 21 -33 23 -23 4 -30
22 -8 22 21 0 50 37 44 55 -4 8 -2 15 3 15 6 0 10 -6 10 -12 0 -9 2 -10 8 -2
4 6 17 15 30 18 18 6 21 11 12 21 -20 24 -95 -20 -84 -49 11 -27 -24 -30 -71
-5 -51 27 -57 39 -19 39 29 0 66 17 77 36 4 8 19 14 32 14 33 0 33 28 0 36
-14 3 -31 4 -37 1 -7 -2 -24 0 -37 4 -19 8 -21 12 -11 24 10 12 10 15 -1 17
-8 0 -21 2 -29 3 -8 1 -25 -2 -38 -7 -76 -26 -128 -25 -153 5 -22 27 -24 38
-4 31 8 -4 15 -1 15 5 0 6 9 20 20 31 11 11 15 20 9 20 -6 0 -8 8 -4 19 6 21
-18 51 -42 51 -10 0 -13 -6 -9 -16 8 -21 -11 -44 -36 -44 -13 0 -18 -5 -15
-13 4 -10 -2 -13 -19 -9 -33 6 -30 21 6 33 17 6 30 17 30 25 0 20 -46 17 -62
-4 -9 -13 -20 -16 -38 -12 -23 7 -24 8 -5 15 11 4 27 14 35 20 8 7 24 15 35
18 15 4 14 5 -7 6 -15 0 -30 -3 -33 -9 -8 -13 -45 -13 -45 -1 0 5 9 13 21 16
29 9 18 30 -17 31 -16 1 -47 6 -68 12 -22 6 -43 9 -47 6 -5 -3 -23 3 -41 13
-31 16 -32 18 -10 21 13 2 29 -1 36 -8 10 -8 18 -7 29 4 8 8 31 18 51 21 33 7
59 24 39 26 -4 0 -19 2 -32 3 -13 2 -32 -5 -43 -16 -20 -20 -43 -24 -53 -7 -4
5 -17 9 -28 8 -12 0 -33 0 -47 1 -23 1 -22 3 10 15 23 9 28 14 15 14 -14 1
-16 4 -8 12 7 7 25 9 49 5 27 -6 34 -10 25 -19 -27 -27 1 -38 35 -12 15 12 16
16 6 23 -8 5 -14 13 -15 18 -1 5 -13 8 -25 6 -15 -2 -21 1 -17 7 3 6 15 11 26
11 10 0 19 4 19 9 0 12 -63 21 -75 10 -14 -14 -25 -11 -25 6 0 8 5 15 11 15 5
0 8 3 5 8 -2 4 -32 6 -65 5 -59 -2 -61 -1 -61 23 0 13 -3 23 -7 23 -29 -5 -63
3 -58 12 4 6 23 9 44 8 50 -4 53 8 9 33 -35 20 -39 21 -50 5 -7 -9 -24 -18
-37 -20 -14 -2 -27 -9 -29 -15 -2 -7 -10 -9 -20 -4 -9 5 -27 7 -39 6 -13 0
-23 3 -23 8 0 5 6 8 13 6 26 -5 119 31 111 43 -3 5 0 9 5 9 6 0 11 5 11 12 0
6 -7 4 -18 -5 -20 -19 -62 -23 -62 -7 0 6 12 10 28 11 26 0 26 1 5 9 -13 5
-23 15 -23 21 0 8 4 8 15 -1 9 -8 15 -8 15 -2 0 6 -9 14 -20 17 -11 3 -27 13
-35 21 -13 14 -15 14 -15 0 0 -8 -4 -18 -10 -21 -5 -3 -7 0 -4 9 4 11 -7 16
-51 21 -59 8 -76 2 -57 -17 16 -16 15 -25 -2 -31 -10 -4 -13 -1 -9 9 4 10 0
12 -11 8 -11 -4 -16 0 -16 12 -1 18 -1 18 -14 1 -16 -21 -30 -22 -45 -3 -8 10
-9 16 -1 21 21 13 9 23 -27 22 -33 -2 -38 1 -39 21 -1 13 5 26 13 29 20 8 30
-6 13 -17 -8 -6 -10 -10 -4 -10 6 0 17 7 24 15 10 12 10 15 0 15 -25 0 0 13
31 17 48 5 58 15 37 36 -15 14 -18 14 -18 2 0 -16 -29 -34 -47 -28 -6 2 -14
-1 -18 -6 -3 -6 -15 -11 -26 -11 -10 0 -19 -6 -19 -14 0 -8 -7 -16 -15 -20
-13 -5 -14 -2 -4 15 6 11 8 23 6 26 -3 2 -10 -5 -17 -16 -6 -12 -18 -21 -26
-21 -11 0 -6 10 15 31 19 18 36 27 43 23 7 -4 10 -4 6 1 -9 10 30 40 40 30 3
-3 0 -11 -8 -16 -13 -9 -13 -10 0 -5 8 3 23 9 33 12 10 4 16 12 14 18 -5 14
-33 20 -55 10 -9 -4 -24 -8 -32 -9 -8 -1 -34 -10 -58 -20 -32 -13 -40 -20 -30
-27 9 -7 5 -8 -13 -4 -18 4 -31 0 -44 -14 -10 -11 -22 -17 -27 -14 -4 3 2 14
14 25 l23 21 -22 -5 c-13 -3 -23 -1 -23 4 0 5 5 9 11 9 6 0 17 7 25 15 18 18
34 20 34 4 0 -13 45 13 73 42 29 31 27 31 -82 13 -35 -6 -43 -4 -39 7 2 8 19
15 36 17 28 3 47 22 22 22 -5 0 -7 6 -4 14 3 8 1 17 -5 21 -6 3 -11 1 -11 -5
0 -8 -6 -7 -22 1 -18 10 -20 9 -15 -5 4 -10 1 -16 -6 -16 -7 0 -23 -10 -36
-21 -26 -24 -80 -22 -107 5 -14 15 -13 16 11 16 15 0 24 -4 20 -10 -4 -6 7
-10 25 -10 23 0 33 5 37 19 3 11 15 22 26 25 14 4 18 9 11 13 -7 5 -13 17 -15
27 -4 19 -18 25 -76 29 -19 1 -33 8 -33 15 0 9 -5 10 -18 3 -11 -6 -24 -6 -33
0 -11 7 -10 9 6 9 16 0 13 4 -12 20 -35 21 -39 33 -22 77 8 22 12 25 20 13 9
-13 10 -13 6 0 -6 24 -43 19 -39 -5 6 -33 -12 -6 -25 38 -8 26 -9 43 -3 45 17
6 11 19 -12 25 -12 4 -19 9 -15 13 4 4 2 12 -3 19 -18 21 -30 469 -17 615 3
41 7 103 7 138 l0 62 33 0 c55 0 186 108 330 272 31 36 57 68 57 70 0 3 16 23
36 44 20 22 46 58 57 81 48 92 90 152 157 223 38 41 70 80 70 87 0 7 6 13 13
14 6 0 3 4 -8 9 -19 8 -19 8 4 17 14 6 20 13 14 16 -11 7 -3 62 11 86 4 6 4
17 -1 24 -4 6 -8 16 -8 21 0 6 -15 14 -34 19 -35 9 -33 20 7 32 14 4 22 2 22
-5 0 -6 5 -8 10 -5 16 10 3 22 -29 28 -15 3 -31 13 -35 23 -4 12 -2 15 9 10 8
-3 15 -1 15 5 0 6 5 7 10 4 6 -3 13 1 16 9 3 9 13 16 21 16 8 0 11 5 8 10 -3
6 -17 10 -31 10 -14 0 -23 -4 -19 -9 6 -11 -13 -26 -22 -18 -2 3 -2 15 2 26 7
23 53 29 72 10 8 -8 17 -7 35 5 l23 17 -26 -6 c-20 -5 -28 -2 -33 11 -4 10 -2
20 4 24 6 4 8 14 4 23 -4 10 -1 17 6 17 6 0 14 -9 17 -20 11 -40 30 -16 23 29
-1 10 6 12 24 9 15 -3 26 -1 27 6 1 6 2 36 4 66 1 30 3 55 4 55 2 0 4 17 7 38
4 34 3 37 -21 37 -16 0 -24 -4 -20 -11 4 -6 13 -8 21 -5 17 7 18 -16 2 -32
-15 -15 -32 -16 -23 -2 3 6 2 10 -4 10 -5 0 -12 8 -14 18 -4 15 -5 15 -6 0 0
-9 -10 -20 -21 -23 -11 -4 -18 -11 -15 -16 6 -8 -17 -14 -39 -10 -24 5 -56
-11 -56 -27 0 -15 -2 -15 -10 -2 -7 11 -10 11 -10 2 0 -8 -5 -10 -12 -6 -8 5
-9 2 -5 -9 8 -20 -4 -22 -21 -5 -10 10 -15 10 -21 -1 -5 -7 -14 -10 -20 -7 -6
4 -11 2 -11 -4 0 -7 -6 -10 -12 -8 -7 3 -19 -1 -26 -9 -16 -15 -32 -17 -32 -3
0 5 -6 7 -14 4 -12 -5 -66 4 -141 21 -11 2 -59 11 -107 19 -48 8 -102 19 -120
24 -18 6 -56 11 -85 11 -107 1 -222 37 -310 97 -43 29 -173 163 -173 179 0 3
-9 24 -20 48 -49 107 -59 152 -60 282 -1 107 14 173 51 235 5 8 15 26 22 40
17 34 84 101 132 133 42 27 162 76 205 83 14 2 65 4 114 5 49 0 97 4 107 10
11 6 20 6 24 -1 4 -6 19 -4 42 5 19 8 38 13 42 11 4 -3 25 -1 47 4 47 11 280
38 312 37 12 -1 22 -5 22 -9 0 -4 6 -8 13 -8 8 0 22 -9 31 -19 18 -20 31 -21
55 -7 10 7 12 4 6 -13 -5 -15 -2 -21 10 -21 9 0 13 5 10 10 -3 6 -3 10 0 10 9
0 31 -23 38 -40 5 -13 6 -13 6 -1 1 11 5 10 16 -5 15 -19 15 -19 35 5 11 13
24 20 28 16 4 -4 1 -10 -5 -12 -23 -8 -13 -21 21 -27 29 -6 61 -36 37 -36 -5
0 -11 -9 -14 -20 -4 -16 -2 -18 13 -10 31 17 62 12 58 -7 -2 -10 -9 -19 -16
-19 -6 -1 -16 -2 -22 -3 -5 0 -10 -6 -10 -12 0 -5 4 -8 9 -5 12 8 34 -21 26
-33 -4 -7 0 -8 10 -5 13 5 15 2 9 -20 -7 -31 9 -35 38 -9 11 9 18 11 18 5 0
-7 -4 -12 -10 -12 -18 0 -11 -60 10 -77 21 -18 27 -43 10 -43 -5 0 -10 -7 -10
-15 0 -18 12 -19 27 -4 9 9 11 2 8 -30 -2 -28 0 -41 8 -40 7 1 20 -2 31 -6 26
-11 50 7 53 39 2 27 -11 36 -21 14 -3 -7 -3 -3 0 10 4 16 1 22 -12 22 -14 0
-15 3 -6 12 7 7 12 20 12 30 0 10 7 18 15 18 8 0 15 3 15 8 0 4 3 53 7 108 7
124 -2 195 -23 187 -10 -4 -12 0 -8 11 3 9 10 16 14 16 4 0 8 28 8 62 0 70 11
84 97 127 29 14 45 30 49 47 4 14 28 53 54 87 26 34 55 73 64 87 9 14 32 43
51 65 38 42 39 55 5 55 -12 0 -18 3 -15 7 4 3 20 6 37 5 16 0 32 4 35 9 4 5 1
9 -6 9 -9 0 -9 4 1 15 6 8 9 19 5 25 -3 6 3 10 14 10 27 0 61 29 61 52 0 10 4
18 9 18 5 0 11 6 14 13 4 10 -2 13 -20 9 -18 -3 -24 -1 -19 7 4 6 13 11 19 10
23 -3 36 1 51 17 22 22 20 37 -4 29 -14 -4 -20 -2 -20 8 0 10 8 14 25 12 32
-3 47 22 39 64 -5 26 -3 31 13 31 26 0 55 37 48 61 -5 13 -2 17 7 14 13 -5 48
57 55 95 1 8 7 16 13 18 14 5 42 71 34 83 -3 5 0 9 6 9 12 0 60 100 60 127 0
10 7 26 15 37 10 13 11 25 5 42 -6 14 -6 26 0 29 6 4 10 3 10 -2 0 -4 4 -2 9
6 5 7 5 28 1 47 -5 23 -4 37 5 44 11 9 11 17 -1 46 -8 19 -11 40 -7 47 4 8 1
7 -10 -1 -9 -8 -21 -11 -27 -7 -5 3 -10 1 -10 -4 0 -6 -9 -10 -20 -8 -34 5
-34 17 -1 23 21 5 30 11 27 20 -6 16 13 30 37 26 10 -2 17 3 17 12 0 9 5 16
11 16 6 0 8 -9 3 -22 -6 -20 -5 -21 10 -9 14 11 16 11 16 -2 0 -9 4 -18 9 -22
6 -3 8 17 5 50 -5 55 1 66 24 43 20 -20 14 1 -7 23 -15 16 -23 18 -45 9 -37
-14 -38 -14 -34 17 2 22 -2 28 -26 34 -18 5 -35 4 -42 -2 -8 -7 -13 -3 -17 11
-3 12 -13 20 -26 20 -12 0 -23 0 -26 0 -3 0 -5 -3 -4 -6 2 -14 -26 -22 -56
-17 -37 6 -60 -15 -26 -24 12 -3 21 -10 21 -15 0 -5 7 -16 15 -24 16 -17 20
-44 7 -44 -5 0 -19 11 -32 25 -28 30 -76 36 -62 8 12 -22 5 -43 -14 -43 -16 0
-19 -21 -4 -36 17 -17 0 -44 -27 -44 -18 0 -24 -4 -20 -14 8 -20 -42 -116 -59
-116 -8 0 -14 -6 -13 -12 4 -32 -3 -46 -25 -52 -13 -3 -31 -9 -40 -12 -9 -4
-16 -3 -14 2 6 21 -24 55 -45 52 -12 -2 -21 -9 -20 -15 2 -7 -8 -24 -22 -39
-14 -15 -25 -37 -25 -49 0 -12 -9 -30 -19 -39 -11 -10 -21 -30 -23 -45 -2 -20
-9 -27 -32 -29 -23 -3 -28 0 -23 12 6 15 2 17 -20 15 -5 0 -7 -7 -5 -15 2 -8
-5 -14 -14 -14 -15 0 -15 -3 4 -23 23 -24 32 -51 10 -29 -7 7 -21 12 -31 12
-16 0 -17 -3 -8 -14 9 -11 9 -15 -1 -19 -10 -4 -8 -9 5 -17 28 -18 20 -30 -17
-25 -28 3 -34 1 -29 -11 3 -8 -1 -14 -11 -14 -9 0 -16 -4 -16 -10 0 -5 4 -10
9 -10 5 0 8 -8 7 -17 0 -12 7 -19 22 -21 35 -5 26 -22 -12 -22 -19 0 -37 -4
-40 -9 -4 -5 4 -7 16 -4 21 4 21 3 5 -7 -11 -7 -33 -9 -58 -5 -31 5 -39 4 -39
-9 0 -10 -7 -13 -22 -9 -13 2 -31 5 -40 5 -10 -1 -18 4 -18 10 0 6 -8 8 -18 6
-14 -4 -18 0 -17 14 1 11 7 23 14 28 23 13 1 32 -33 28 -27 -3 -32 0 -31 19 0
12 6 28 14 35 11 11 12 9 2 -9 -11 -21 -9 -23 12 -23 14 0 30 7 37 15 10 12
10 15 -4 15 -9 0 -16 3 -16 6 0 12 24 50 39 61 14 11 14 12 -1 13 -10 0 -18
-4 -18 -10 0 -5 -4 -10 -10 -10 -5 0 -10 7 -10 15 0 8 6 15 14 15 30 0 26 21
-6 35 -18 8 -28 15 -23 15 6 1 -1 6 -15 12 l-25 10 25 9 c22 8 26 16 27 51 1
23 -2 47 -8 54 -6 8 -5 14 6 18 13 4 14 10 5 26 -6 11 -16 18 -22 14 -6 -4 -9
-1 -6 7 3 8 13 13 23 11 9 -2 14 1 11 7 -3 5 -1 15 6 23 17 17 21 38 8 38 -6
0 -10 5 -10 10 0 6 12 10 28 10 26 1 26 1 -8 16 -27 12 -32 17 -20 24 8 5 11
10 5 10 -5 0 -1 6 10 12 19 12 18 13 -10 19 -28 6 -29 7 -7 14 14 5 22 15 22
29 0 30 18 46 53 46 25 0 28 2 17 15 -10 12 -10 18 0 31 16 18 22 64 9 64 -5
0 -9 -5 -9 -11 0 -6 -5 -7 -12 -2 -7 4 -16 8 -20 8 -18 0 -17 14 1 20 12 3 21
14 21 23 0 15 2 15 11 2 8 -12 10 -11 7 5 -2 14 -14 22 -38 27 -29 6 -27 6 13
4 33 -3 47 0 44 8 -3 6 -9 10 -15 9 -5 -1 -9 5 -8 15 0 10 -6 16 -16 16 -10
-1 -18 4 -18 12 0 17 17 27 25 14 10 -16 48 -12 42 4 -3 7 0 19 6 25 8 8 8 11
0 11 -6 0 -13 -6 -16 -12 -2 -7 -8 -10 -12 -6 -12 11 4 58 20 58 8 0 15 5 15
10 0 6 -7 10 -16 10 -10 0 -14 7 -12 23 2 12 9 21 16 20 8 -2 12 10 12 32 0
19 5 35 10 35 6 0 10 5 10 10 0 6 -7 10 -15 10 -18 0 -18 1 -5 36 7 17 7 30 1
33 -14 9 -18 46 -4 44 6 -1 14 4 17 12 3 9 0 15 -8 15 -9 0 -12 7 -9 19 6 23
52 35 60 15 3 -8 9 -12 13 -9 10 6 1 186 -9 200 -5 6 -19 41 -31 78 l-24 68
-140 -2 c-78 -2 -143 -6 -146 -10 -9 -14 -93 -14 -98 -1 -3 9 -400 12 -1768
12 l-1764 0 16 -37z m3812 -128 c-3 -3 -9 2 -12 12 -6 14 -5 15 5 6 7 -7 10
-15 7 -18z m102 -128 c0 -16 -30 -18 -49 -5 -19 14 -18 14 14 14 19 -1 35 -5
35 -9z m-40 -217 c0 -5 -4 -10 -10 -10 -5 0 -10 5 -10 10 0 6 5 10 10 10 6 0
10 -4 10 -10z m-80 -210 c-8 -15 -8 -20 2 -20 9 0 9 -3 1 -11 -15 -15 -32 -3
-30 21 1 10 4 17 8 14 4 -2 10 0 14 6 11 19 16 10 5 -10z m-55 -130 c3 -5 1
-10 -4 -10 -6 0 -11 5 -11 10 0 6 2 10 4 10 3 0 8 -4 11 -10z m995 -115 c16
-10 -5 -32 -35 -37 -27 -6 -45 8 -45 34 0 15 6 17 35 14 19 -2 39 -7 45 -11z
m-930 -9 c0 -9 -8 -12 -25 -8 -14 2 -25 8 -25 13 0 5 11 9 25 9 14 0 25 -6 25
-14z m950 -86 c0 -5 -4 -10 -10 -10 -5 0 -10 5 -10 10 0 6 5 10 10 10 6 0 10
-4 10 -10z m-118 -317 c6 1 13 -4 15 -10 3 -8 -4 -13 -19 -13 -38 0 -68 11
-68 25 0 10 8 11 31 5 17 -5 36 -8 41 -7z m79 -18 c-2 -17 -36 -11 -39 7 -3
14 1 16 18 10 12 -4 21 -12 21 -17z m-5255 -104 c-17 -19 -46 -19 -46 -1 0 7
16 13 54 19 5 0 1 -8 -8 -18z m5219 -19 c-8 -9 -35 20 -28 31 4 6 11 3 19 -8
8 -10 12 -21 9 -23z m-571 9 c3 -5 -1 -11 -9 -15 -9 -3 -15 0 -15 9 0 16 16
20 24 6z m-369 -61 c3 -5 -1 -10 -9 -10 -9 0 -16 5 -16 10 0 6 4 10 9 10 6 0
13 -4 16 -10z m312 -67 c2 -6 -11 -13 -29 -16 -38 -5 -43 -3 -34 18 6 18 57
16 63 -2z m-332 -83 c3 -5 -3 -10 -15 -10 -12 0 -18 5 -15 10 3 6 10 10 15 10
5 0 12 -4 15 -10z m185 -34 c0 -3 -4 -8 -10 -11 -5 -3 -10 -1 -10 4 0 6 5 11
10 11 6 0 10 -2 10 -4z m-50 -26 c0 -5 -5 -10 -11 -10 -5 0 -7 5 -4 10 3 6 8
10 11 10 2 0 4 -4 4 -10z m625 -50 c3 -5 1 -10 -4 -10 -6 0 -11 5 -11 10 0 6
2 10 4 10 3 0 8 -4 11 -10z m0 -68 c-3 -3 -11 0 -18 7 -9 10 -8 11 6 5 10 -3
15 -9 12 -12z m-82 -149 c-7 -2 -13 -11 -13 -19 0 -14 -12 -19 -23 -8 -9 9 16
33 33 33 10 0 11 -2 3 -6z m-4528 -613 c-3 -5 -10 -10 -16 -10 -5 0 -9 5 -9
10 0 6 7 10 16 10 8 0 12 -4 9 -10z m4073 -19 c10 -6 10 -10 -2 -20 -17 -14
-36 -7 -36 15 0 15 18 18 38 5z m-458 -11 c0 -5 -2 -10 -4 -10 -3 0 -8 5 -11
10 -3 6 -1 10 4 10 6 0 11 -4 11 -10z m-3525 -20 c3 -5 -3 -10 -13 -10 -11 0
-25 -7 -32 -15 -7 -8 -16 -15 -21 -15 -5 0 -9 7 -9 15 0 8 9 15 20 15 11 0 20
5 20 10 0 6 6 10 14 10 8 0 18 -4 21 -10z m3745 -34 c0 -3 -4 -8 -10 -11 -5
-3 -10 -1 -10 4 0 6 5 11 10 11 6 0 10 -2 10 -4z m-3771 -77 c-15 -15 -28 -19
-45 -15 -14 4 -22 11 -18 17 3 6 12 8 20 5 8 -3 14 -1 14 4 0 5 7 7 15 4 8 -4
15 -1 15 6 0 6 4 9 10 5 5 -3 0 -15 -11 -26z m3891 11 c0 -5 -11 -10 -25 -10
-14 0 -25 5 -25 10 0 6 11 10 25 10 14 0 25 -4 25 -10z m-10 -60 c0 -5 -2 -10
-4 -10 -3 0 -8 5 -11 10 -3 6 -1 10 4 10 6 0 11 -4 11 -10z m120 -59 c0 -5 -7
-12 -16 -15 -8 -3 -12 -10 -9 -16 4 -6 -1 -7 -11 -3 -10 4 -13 8 -7 10 7 3 9
11 6 19 -3 9 2 14 16 14 12 0 21 -4 21 -9z m-4110 -765 c0 -11 -19 -15 -25 -6
-3 5 1 10 9 10 9 0 16 -2 16 -4z m60 -15 c0 -5 -7 -11 -15 -15 -15 -5 -20 5
-8 17 9 10 23 9 23 -2z m1250 -11 c0 -5 -5 -10 -11 -10 -5 0 -7 5 -4 10 3 6 8
10 11 10 2 0 4 -4 4 -10z m-1052 -117 c-14 -4 -16 -8 -8 -24 7 -13 7 -19 0
-19 -5 0 -10 4 -10 9 0 5 -3 16 -6 25 -5 12 0 16 17 15 17 -1 19 -3 7 -6z
m3462 -13 c0 -5 -4 -10 -10 -10 -5 0 -10 5 -10 10 0 6 5 10 10 10 6 0 10 -4
10 -10z m130 -29 c0 -5 -8 -11 -19 -14 -14 -3 -18 1 -18 19 0 20 2 22 18 13
11 -5 19 -14 19 -18z m-3640 -11 c0 -5 -4 -10 -9 -10 -6 0 -13 5 -16 10 -3 6
1 10 9 10 9 0 16 -4 16 -10z m193 -15 c-3 -9 -8 -14 -10 -11 -3 3 -2 9 2 15 9
16 15 13 8 -4z m3367 -46 c0 -6 -4 -7 -10 -4 -5 3 -10 11 -10 16 0 6 5 7 10 4
6 -3 10 -11 10 -16z m-30 -70 c0 -5 -12 -9 -26 -9 -14 0 -23 4 -20 8 7 11 46
12 46 1z m-3656 -75 c9 -24 0 -28 -24 -11 -15 11 -18 16 -8 20 22 9 26 8 32
-9z m-19 -34 c3 -5 1 -10 -4 -10 -6 0 -11 5 -11 10 0 6 2 10 4 10 3 0 8 -4 11
-10z m3590 -80 c-3 -5 -11 -10 -16 -10 -6 0 -7 5 -4 10 3 6 11 10 16 10 6 0 7
-4 4 -10z m-3550 -60 c3 -5 -1 -10 -9 -10 -9 0 -16 5 -16 10 0 6 4 10 9 10 6
0 13 -4 16 -10z m40 -59 c-8 -13 -35 -15 -35 -2 0 5 8 11 18 13 21 5 26 2 17
-11z m45 5 c0 -11 -19 -15 -25 -6 -3 5 1 10 9 10 9 0 16 -2 16 -4z m3260 0 c0
-3 -4 -8 -10 -11 -5 -3 -10 -1 -10 4 0 6 5 11 10 11 6 0 10 -2 10 -4z m215 -6
c3 -5 1 -10 -4 -10 -6 0 -11 5 -11 10 0 6 2 10 4 10 3 0 8 -4 11 -10z m-3485
-90 c0 -5 -4 -10 -10 -10 -5 0 -10 5 -10 10 0 6 5 10 10 10 6 0 10 -4 10 -10z
m3230 -20 c0 -5 -4 -10 -10 -10 -5 0 -10 5 -10 10 0 6 5 10 10 10 6 0 10 -4
10 -10z m-2210 -1649 c0 -16 -26 -19 -45 -5 -17 13 -17 14 13 14 18 0 32 -4
32 -9z m1961 -244 c-8 -10 -2 -12 26 -9 27 3 34 1 30 -9 -2 -8 -11 -12 -18
-10 -20 5 -66 3 -88 -4 -20 -6 -21 0 -12 58 0 4 5 7 11 7 5 0 7 -7 4 -15 -9
-22 9 -18 31 8 18 20 20 20 23 4 2 -10 -1 -24 -7 -30z m56 -143 c12 -19 12
-22 -2 -28 -9 -3 -15 -1 -14 7 4 31 -1 40 -15 28 -7 -6 -22 -8 -32 -4 -17 6
-16 7 2 14 28 11 45 7 61 -17z m73 16 c0 -5 -6 -10 -14 -10 -8 0 -23 -3 -33
-6 -16 -5 -16 -4 1 10 22 18 46 21 46 6z m60 0 c0 -5 -9 -10 -20 -10 -11 0
-20 5 -20 10 0 6 9 10 20 10 11 0 20 -4 20 -10z m332 -202 c-12 -12 -54 -7
-59 8 -2 6 10 8 33 6 23 -3 32 -8 26 -14z m67 -27 c10 -7 11 -13 2 -30 -7 -11
-17 -21 -24 -21 -8 0 -7 4 3 10 13 9 13 12 -3 21 -9 6 -15 14 -12 20 8 11 16
11 34 0z m-82 -9 c7 6 16 8 19 5 9 -8 -35 -29 -46 -22 -6 3 -10 11 -10 18 0 8
3 8 12 -1 8 -8 15 -9 25 0z m218 -62 c3 -5 -1 -10 -10 -10 -9 0 -13 5 -10 10
3 6 8 10 10 10 2 0 7 -4 10 -10z m-108 -66 c-3 -3 -12 -4 -19 -1 -8 3 -5 6 6
6 11 1 17 -2 13 -5z m113 -31 c-1 -18 -19 -35 -29 -28 -9 5 -7 11 6 21 21 16
23 16 23 7z m64 -49 c-34 -18 -36 -18 -23 5 8 11 19 16 31 13 16 -4 16 -6 -8
-18z m26 -14 c0 -5 -5 -10 -11 -10 -5 0 -7 5 -4 10 3 6 8 10 11 10 2 0 4 -4 4
-10z m80 0 c0 -5 -4 -10 -10 -10 -5 0 -10 5 -10 10 0 6 5 10 10 10 6 0 10 -4
10 -10z m-3755 -40 c-3 -5 -10 -10 -16 -10 -5 0 -9 5 -9 10 0 6 7 10 16 10 8
0 12 -4 9 -10z m-85 -70 c0 -5 -7 -10 -15 -10 -8 0 -15 5 -15 10 0 6 7 10 15
10 8 0 15 -4 15 -10z m4307 -314 c-4 -11 -64 -13 -75 -1 -11 11 18 22 49 17
16 -2 28 -9 26 -16z m21 -37 c1 -23 -3 -29 -14 -25 -9 3 -18 6 -20 6 -4 0 27
48 32 50 1 0 1 -14 2 -31z m427 -189 c-3 -5 -16 -10 -28 -10 -18 0 -19 2 -7
10 20 13 43 13 35 0z m-160 -30 c-3 -5 -13 -10 -21 -10 -8 0 -14 5 -14 10 0 6
9 10 21 10 11 0 17 -4 14 -10z m313 -212 c-7 -20 -48 -23 -48 -4 0 11 9 16 26
16 16 0 24 -5 22 -12z m339 -336 c8 -5 3 -11 -13 -19 -14 -6 -26 -7 -30 -2 -3
5 3 9 13 9 15 0 16 2 3 10 -13 9 -13 10 0 10 8 0 20 -4 27 -8z m-4 -57 c4 -8
2 -17 -2 -20 -5 -2 -11 4 -14 15 -6 23 8 27 16 5z m87 -28 c0 -8 -8 -22 -19
-31 -17 -16 -19 -16 -25 0 -4 10 1 22 11 30 23 17 33 17 33 1z m50 -117 c0 -5
-5 -10 -11 -10 -5 0 -7 5 -4 10 3 6 8 10 11 10 2 0 4 -4 4 -10z m-37 -17 c-7
-2 -19 -2 -25 0 -7 3 -2 5 12 5 14 0 19 -2 13 -5z m-7127 -289 c-3 -9 -6 -22
-6 -30 0 -13 -31 -20 -42 -9 -7 7 33 55 46 55 4 0 5 -7 2 -16z"/>
<path d="M7195 8960 c-3 -5 -1 -10 4 -10 6 0 11 5 11 10 0 6 -2 10 -4 10 -3 0
-8 -4 -11 -10z"/>
<path d="M6640 8870 c0 -5 7 -10 15 -10 8 0 15 5 15 10 0 6 -7 10 -15 10 -8 0
-15 -4 -15 -10z"/>
<path d="M2000 8710 c0 -5 4 -10 9 -10 6 0 13 5 16 10 3 6 -1 10 -9 10 -9 0
-16 -4 -16 -10z"/>
<path d="M7045 8690 c4 -6 11 -8 16 -5 14 9 11 15 -7 15 -8 0 -12 -5 -9 -10z"/>
<path d="M2024 8627 c-16 -14 -24 -29 -20 -35 12 -20 91 -14 117 8 l24 19 -34
1 c-25 0 -32 4 -27 15 9 24 -29 18 -60 -8z"/>
<path d="M6520 8626 c0 -10 9 -16 21 -16 24 0 21 23 -4 28 -10 2 -17 -3 -17
-12z"/>
<path d="M6785 8620 c-3 -5 3 -10 14 -10 12 0 21 5 21 10 0 6 -6 10 -14 10 -8
0 -18 -4 -21 -10z"/>
<path d="M7250 8605 c12 -15 30 -12 30 6 0 5 -10 9 -21 9 -18 0 -19 -2 -9 -15z"/>
<path d="M6510 8592 c0 -13 38 -23 46 -11 3 5 1 9 -5 9 -5 0 -16 3 -25 6 -9 3
-16 2 -16 -4z"/>
<path d="M1640 8580 c0 -5 5 -10 10 -10 6 0 10 5 10 10 0 6 -4 10 -10 10 -5 0
-10 -4 -10 -10z"/>
<path d="M2150 8570 c0 -5 4 -10 9 -10 6 0 13 5 16 10 3 6 -1 10 -9 10 -9 0
-16 -4 -16 -10z"/>
<path d="M6970 8559 c0 -5 5 -7 10 -4 6 3 10 8 10 11 0 2 -4 4 -10 4 -5 0 -10
-5 -10 -11z"/>
<path d="M2217 8554 c-8 -8 1 -24 13 -24 4 0 10 7 14 15 5 15 -14 21 -27 9z"/>
<path d="M2585 8549 c-10 -15 3 -25 16 -12 7 7 7 13 1 17 -6 3 -14 1 -17 -5z"/>
<path d="M7280 8540 c0 -5 5 -10 10 -10 6 0 10 5 10 10 0 6 -4 10 -10 10 -5 0
-10 -4 -10 -10z"/>
<path d="M2101 8532 c-17 -6 -13 -19 8 -25 18 -4 41 9 41 23 0 6 -32 8 -49 2z"/>
<path d="M2058 8523 c7 -3 16 -2 19 1 4 3 -2 6 -13 5 -11 0 -14 -3 -6 -6z"/>
<path d="M2635 8509 c-4 -6 -4 -13 -1 -16 8 -8 36 5 36 17 0 13 -27 13 -35 -1z"/>
<path d="M7471 8494 c0 -11 3 -14 6 -6 3 7 2 16 -1 19 -3 4 -6 -2 -5 -13z"/>
<path d="M6720 8490 c0 -5 5 -10 10 -10 6 0 10 5 10 10 0 6 -4 10 -10 10 -5 0
-10 -4 -10 -10z"/>
<path d="M1750 8473 c0 -4 5 -15 10 -23 8 -13 10 -13 10 2 0 9 -4 20 -10 23
-5 3 -10 3 -10 -2z"/>
<path d="M7403 8443 c-29 -19 -29 -40 -2 -48 23 -8 39 7 39 37 0 24 -12 28
-37 11z"/>
<path d="M2166 8428 c-21 -29 -20 -38 3 -38 16 0 51 38 51 55 0 15 -41 2 -54
-17z"/>
<path d="M2240 8380 c-12 -8 -12 -10 2 -15 24 -9 61 -2 66 13 4 14 -45 17 -68
2z"/>
<path d="M7460 8380 c0 -5 7 -10 16 -10 8 0 12 5 9 10 -3 6 -10 10 -16 10 -5
0 -9 -4 -9 -10z"/>
<path d="M2618 8368 c9 -9 15 -9 24 0 9 9 7 12 -12 12 -19 0 -21 -3 -12 -12z"/>
<path d="M6590 8336 c0 -8 5 -18 10 -21 6 -3 10 3 10 14 0 12 -4 21 -10 21 -5
0 -10 -6 -10 -14z"/>
<path d="M7270 8324 c0 -16 5 -24 13 -21 6 2 20 0 30 -5 23 -12 22 3 -3 30
-27 29 -40 28 -40 -4z"/>
<path d="M6730 8331 c0 -5 6 -14 14 -20 12 -10 13 -8 9 8 -5 21 -23 30 -23 12z"/>
<path d="M7780 8320 c0 -5 7 -10 16 -10 8 0 12 5 9 10 -3 6 -10 10 -16 10 -5
0 -9 -4 -9 -10z"/>
<path d="M2685 8310 c-8 -12 2 -30 17 -30 7 0 7 4 -1 13 -6 8 -8 17 -4 20 3 4
4 7 0 7 -3 0 -9 -4 -12 -10z"/>
<path d="M7200 8305 c0 -9 5 -15 11 -13 6 2 11 8 11 13 0 5 -5 11 -11 13 -6 2
-11 -4 -11 -13z"/>
<path d="M2360 8300 c0 -5 5 -10 10 -10 6 0 10 5 10 10 0 6 -4 10 -10 10 -5 0
-10 -4 -10 -10z"/>
<path d="M1915 8280 c-3 -5 -1 -10 4 -10 6 0 11 5 11 10 0 6 -2 10 -4 10 -3 0
-8 -4 -11 -10z"/>
<path d="M7265 8250 c14 -15 21 -17 31 -9 19 16 8 29 -23 29 -25 0 -26 0 -8
-20z"/>
<path d="M2196 8241 c-4 -5 -2 -12 3 -15 5 -4 12 -2 15 3 4 5 2 12 -3 15 -5 4
-12 2 -15 -3z"/>
<path d="M1690 8216 c0 -9 5 -16 10 -16 6 0 10 4 10 9 0 6 -4 13 -10 16 -5 3
-10 -1 -10 -9z"/>
<path d="M2020 8210 c-9 -17 -8 -20 8 -20 24 0 32 8 25 26 -7 20 -20 17 -33
-6z"/>
<path d="M6703 8211 c-3 -11 -10 -22 -17 -24 -6 -2 0 -2 14 0 46 8 69 43 29
43 -12 0 -23 -8 -26 -19z"/>
<path d="M2140 8190 c0 -5 5 -10 10 -10 6 0 10 5 10 10 0 6 -4 10 -10 10 -5 0
-10 -4 -10 -10z"/>
<path d="M2290 8170 c-20 -12 -5 -24 16 -12 9 5 12 12 7 15 -5 3 -15 2 -23 -3z"/>
<path d="M2590 8150 c0 -5 5 -10 11 -10 5 0 7 5 4 10 -3 6 -8 10 -11 10 -2 0
-4 -4 -4 -10z"/>
<path d="M6603 8145 c-3 -9 -3 -18 0 -22 10 -10 37 6 37 22 0 20 -29 20 -37 0z"/>
<path d="M7230 8149 c0 -5 5 -7 10 -4 6 3 10 8 10 11 0 2 -4 4 -10 4 -5 0 -10
-5 -10 -11z"/>
<path d="M7310 8129 c0 -17 4 -20 22 -16 12 3 30 1 40 -4 25 -13 41 -3 29 20
-6 11 -24 18 -50 19 -36 3 -41 0 -41 -19z"/>
<path d="M2259 8107 c7 -7 14 -8 21 -1 6 6 2 10 -12 11 -16 2 -18 -1 -9 -10z"/>
<path d="M7520 8039 c0 -5 5 -7 10 -4 6 3 10 8 10 11 0 2 -4 4 -10 4 -5 0 -10
-5 -10 -11z"/>
<path d="M2370 7939 c0 -5 5 -7 10 -4 6 3 10 8 10 11 0 2 -4 4 -10 4 -5 0 -10
-5 -10 -11z"/>
<path d="M6421 7911 c-22 -14 -4 -33 20 -21 11 6 17 15 14 21 -8 11 -16 11
-34 0z"/>
<path d="M2420 7901 c0 -5 5 -13 10 -16 6 -3 10 -2 10 4 0 5 -4 13 -10 16 -5
3 -10 2 -10 -4z"/>
<path d="M6460 7870 c0 -5 5 -10 11 -10 5 0 7 5 4 10 -3 6 -8 10 -11 10 -2 0
-4 -4 -4 -10z"/>
<path d="M7743 7839 c-28 -10 -30 -29 -4 -29 25 0 51 10 51 20 0 13 -24 18
-47 9z"/>
<path d="M2470 7800 c0 -5 5 -10 10 -10 6 0 10 5 10 10 0 6 -4 10 -10 10 -5 0
-10 -4 -10 -10z"/>
<path d="M6896 7802 c-3 -6 -1 -14 5 -17 15 -10 25 3 12 16 -7 7 -13 7 -17 1z"/>
<path d="M6375 7710 c3 -5 10 -10 16 -10 5 0 9 5 9 10 0 6 -7 10 -16 10 -8 0
-12 -4 -9 -10z"/>
<path d="M2440 7680 c19 -13 30 -13 30 0 0 6 -10 10 -22 10 -19 0 -20 -2 -8
-10z"/>
<path d="M6500 7360 c0 -5 5 -10 11 -10 5 0 7 5 4 10 -3 6 -8 10 -11 10 -2 0
-4 -4 -4 -10z"/>
<path d="M1928 6933 c6 -2 18 -2 25 0 6 3 1 5 -13 5 -14 0 -19 -2 -12 -5z"/>
<path d="M1863 6843 c-19 -7 -16 -20 7 -26 13 -3 20 0 20 8 0 17 -11 24 -27
18z"/>
<path d="M2270 6610 c0 -5 5 -10 10 -10 6 0 10 5 10 10 0 6 -4 10 -10 10 -5 0
-10 -4 -10 -10z"/>
<path d="M2225 6550 c3 -5 8 -10 11 -10 2 0 4 5 4 10 0 6 -5 10 -11 10 -5 0
-7 -4 -4 -10z"/>
<path d="M2190 6476 c0 -2 11 -6 25 -8 13 -3 22 -1 19 3 -5 9 -44 13 -44 5z"/>
<path d="M2288 6454 c24 -17 39 -14 27 5 -3 6 -16 11 -28 11 l-21 0 22 -16z"/>
<path d="M2246 6428 c3 -5 10 -6 15 -3 13 9 11 12 -6 12 -8 0 -12 -4 -9 -9z"/>
<path d="M2223 6393 c-12 -2 -24 -10 -26 -17 -4 -9 2 -11 19 -8 17 3 29 -2 39
-14 7 -11 17 -15 22 -11 4 5 0 13 -9 18 -10 5 -15 16 -12 24 4 8 2 14 -2 14
-5 -1 -19 -4 -31 -6z"/>
<path d="M2275 6380 c3 -5 8 -10 11 -10 2 0 4 5 4 10 0 6 -5 10 -11 10 -5 0
-7 -4 -4 -10z"/>
<path d="M2311 6336 c50 -60 81 -78 94 -56 4 6 -7 13 -24 16 -17 4 -31 11 -31
16 0 6 7 8 15 4 8 -3 15 -1 15 4 0 5 -10 12 -22 15 -65 19 -62 19 -47 1z"/>
<path d="M2210 6330 c0 -5 5 -10 11 -10 5 0 7 5 4 10 -3 6 -8 10 -11 10 -2 0
-4 -4 -4 -10z"/>
<path d="M2277 6283 c-11 -11 -8 -43 4 -43 6 0 9 7 5 15 -4 13 -2 14 14 5 22
-12 27 -1 8 18 -14 14 -22 15 -31 5z"/>
<path d="M2425 6270 c3 -5 8 -10 11 -10 2 0 4 5 4 10 0 6 -5 10 -11 10 -5 0
-7 -4 -4 -10z"/>
<path d="M2204 6261 c3 -5 14 -11 25 -14 14 -3 18 -1 14 9 -3 8 -14 14 -25 14
-10 0 -17 -4 -14 -9z"/>
<path d="M6135 6240 c-3 -5 -1 -10 4 -10 6 0 11 5 11 10 0 6 -2 10 -4 10 -3 0
-8 -4 -11 -10z"/>
<path d="M2238 6203 c6 -2 18 -2 25 0 6 3 1 5 -13 5 -14 0 -19 -2 -12 -5z"/>
<path d="M2330 6202 c0 -6 -8 -13 -17 -15 -16 -4 -16 -5 -1 -6 18 -1 34 16 24
26 -3 4 -6 1 -6 -5z"/>
<path d="M2225 6170 c-3 -6 0 -10 8 -10 18 0 28 -33 15 -51 -7 -10 -8 -9 -4 6
6 19 5 19 -8 3 -7 -10 -18 -18 -25 -18 -6 0 -11 -5 -11 -11 0 -5 4 -8 8 -5 4
3 26 1 47 -4 21 -5 42 -7 47 -4 13 8 -16 32 -31 26 -10 -4 -12 -1 -5 9 4 8 7
22 6 32 -2 11 3 17 14 17 25 0 14 6 -23 13 -18 4 -35 2 -38 -3z"/>
<path d="M2076 6109 c18 -20 18 -21 -5 -38 -30 -23 -20 -41 22 -40 18 1 24 3
15 6 -22 5 -24 23 -3 23 17 0 21 25 5 35 -5 3 -7 12 -3 20 4 11 -2 15 -22 15
-28 0 -28 0 -9 -21z"/>
<path d="M2430 6090 c0 -5 5 -10 10 -10 6 0 10 5 10 10 0 6 -4 10 -10 10 -5 0
-10 -4 -10 -10z"/>
<path d="M2260 6050 c20 -13 33 -13 25 0 -3 6 -14 10 -23 10 -15 0 -15 -2 -2
-10z"/>
<path d="M2180 6038 c22 -9 23 -11 7 -17 -17 -6 -16 -8 8 -19 32 -15 62 -15
67 -1 5 16 78 0 78 -17 0 -13 18 -19 48 -15 6 1 12 -5 12 -14 0 -8 -7 -15 -15
-15 -8 0 -15 -7 -15 -15 0 -8 5 -15 11 -15 6 0 9 -9 6 -20 -3 -11 -1 -20 5
-20 5 0 6 -4 3 -10 -3 -5 -1 -10 5 -10 6 0 13 7 16 15 4 8 10 12 15 9 5 -3 6
3 2 12 -4 11 -8 13 -11 6 -5 -16 -22 -5 -22 15 0 9 6 13 15 9 11 -4 15 2 15
20 0 14 -4 22 -10 19 -15 -9 -12 4 4 21 8 8 20 14 27 14 10 0 10 3 1 12 -10
10 -17 10 -32 0 -23 -14 -60 -16 -60 -3 0 15 -109 24 -126 11 -11 -10 -14 -9
-14 4 0 9 5 16 12 16 27 0 -5 13 -39 16 -35 2 -36 2 -13 -8z"/>
<path d="M2300 6042 c0 -10 36 -9 46 1 4 4 -5 7 -19 7 -15 0 -27 -4 -27 -8z"/>
<path d="M2406 6038 c5 -7 2 -9 -8 -6 -8 4 -21 2 -28 -2 -10 -6 -6 -11 14 -16
21 -5 33 -2 49 15 l21 21 -27 0 c-19 0 -26 -4 -21 -12z"/>
<path d="M2450 6025 c0 -2 10 -10 23 -16 20 -11 21 -11 8 4 -13 16 -31 23 -31
12z"/>
<path d="M2065 5979 c-4 -6 -5 -12 -2 -15 2 -3 7 2 10 11 7 17 1 20 -8 4z"/>
<path d="M2162 5964 c12 -11 70 -16 63 -5 -3 6 -20 11 -37 11 -17 0 -29 -3
-26 -6z"/>
<path d="M2445 5939 c-11 -17 1 -21 15 -4 8 9 8 15 2 15 -6 0 -14 -5 -17 -11z"/>
<path d="M2110 5874 c0 -10 76 -22 84 -14 6 6 6 10 1 11 -33 4 -85 5 -85 3z"/>
<path d="M2108 5843 c6 -2 18 -2 25 0 6 3 1 5 -13 5 -14 0 -19 -2 -12 -5z"/>
<path d="M2406 5831 c-4 -7 -5 -15 -2 -18 9 -9 19 4 14 18 -4 11 -6 11 -12 0z"/>
<path d="M2390 5789 c0 -5 5 -7 10 -4 6 3 10 8 10 11 0 2 -4 4 -10 4 -5 0 -10
-5 -10 -11z"/>
<path d="M6440 5777 c0 -17 -5 -27 -15 -27 -8 0 -15 -4 -15 -10 0 -5 6 -10 14
-10 20 0 29 -17 15 -26 -8 -4 -9 -3 -5 4 4 7 3 12 -3 12 -6 0 -15 -9 -21 -19
-12 -24 -13 -41 0 -21 5 8 12 11 17 7 4 -4 2 -16 -4 -26 -9 -14 -8 -22 5 -35
9 -9 11 -16 5 -16 -6 0 -14 -18 -18 -40 -4 -22 -11 -38 -16 -34 -5 3 -9 0 -9
-5 0 -14 6 -14 33 0 18 9 16 6 -7 -20 -22 -23 -26 -31 -14 -31 9 0 23 -3 32
-6 11 -4 16 -1 16 11 0 9 9 19 20 22 11 3 20 6 20 7 0 1 9 26 20 55 11 30 18
57 15 59 -2 3 2 20 10 39 15 34 21 92 9 81 -3 -4 -19 -2 -35 2 -17 5 -31 5
-35 -1 -3 -5 -10 -6 -16 -3 -6 4 -5 9 3 15 12 7 11 11 -3 26 -17 16 -18 16
-18 -10z m80 -111 c0 -3 -4 -8 -10 -11 -5 -3 -10 -1 -10 4 0 6 5 11 10 11 6 0
10 -2 10 -4z"/>
<path d="M2396 5754 c-4 -9 -4 -19 -1 -22 2 -3 7 3 11 12 4 9 4 19 1 22 -2 3
-7 -3 -11 -12z"/>
<path d="M2040 5721 c0 -5 9 -7 20 -4 11 3 20 7 20 9 0 2 -9 4 -20 4 -11 0
-20 -4 -20 -9z"/>
<path d="M2395 5699 c6 -9 45 -8 45 2 0 4 -11 7 -25 7 -13 0 -22 -4 -20 -9z"/>
<path d="M2393 5637 c0 -20 6 -34 13 -34 7 0 11 4 8 9 -3 4 3 8 13 8 17 1 17
1 1 11 -10 5 -18 17 -18 24 0 8 -4 15 -9 15 -5 0 -9 -15 -8 -33z"/>
<path d="M2390 5577 c0 -7 5 -19 10 -27 8 -12 12 -11 30 8 11 12 19 22 18 23
-31 7 -58 5 -58 -4z"/>
<path d="M2440 5545 c0 -8 2 -15 4 -15 2 0 6 7 10 15 3 8 1 15 -4 15 -6 0 -10
-7 -10 -15z"/>
<path d="M2178 5536 c-10 -7 -15 -16 -11 -19 11 -12 22 -8 33 13 12 23 3 25
-22 6z"/>
<path d="M2068 5440 c12 -12 22 -25 22 -30 0 -5 7 -7 16 -3 16 6 16 7 0 18 -9
7 -16 17 -16 24 0 6 -10 11 -22 11 l-22 0 22 -20z"/>
<path d="M2485 5440 c-3 -5 -2 -10 4 -10 5 0 13 5 16 10 3 6 2 10 -4 10 -5 0
-13 -4 -16 -10z"/>
<path d="M2057 5373 c-22 -6 -12 -23 14 -23 10 0 19 7 19 15 0 15 -2 16 -33 8z"/>
<path d="M2513 5343 c9 -9 78 -12 72 -4 -2 4 -21 8 -41 9 -21 2 -35 0 -31 -5z"/>
<path d="M2580 5308 c0 -9 5 -20 11 -23 17 -11 18 -2 3 19 -12 17 -14 17 -14
4z"/>
<path d="M6291 5274 c0 -11 3 -14 6 -6 3 7 2 16 -1 19 -3 4 -6 -2 -5 -13z"/>
<path d="M2164 5263 c-9 -15 -14 -16 -26 -6 -23 20 -29 4 -7 -18 12 -12 30
-18 44 -16 29 4 46 17 22 17 -20 0 -22 11 -5 28 9 9 9 12 -3 12 -8 0 -19 -8
-25 -17z"/>
<path d="M2220 5230 c0 -5 5 -10 11 -10 5 0 7 5 4 10 -3 6 -8 10 -11 10 -2 0
-4 -4 -4 -10z"/>
<path d="M2173 5173 c9 -2 23 -2 30 0 6 3 -1 5 -18 5 -16 0 -22 -2 -12 -5z"/>
<path d="M2220 5170 c0 -5 5 -10 10 -10 6 0 10 5 10 10 0 6 -4 10 -10 10 -5 0
-10 -4 -10 -10z"/>
<path d="M2198 5123 c6 -2 18 -2 25 0 6 3 1 5 -13 5 -14 0 -19 -2 -12 -5z"/>
<path d="M2272 5107 c-14 -16 -6 -27 18 -27 10 0 23 -7 30 -15 7 -9 15 -13 17
-11 3 3 -8 19 -24 36 -25 26 -31 29 -41 17z"/>
<path d="M2288 5033 c7 -3 16 -2 19 1 4 3 -2 6 -13 5 -11 0 -14 -3 -6 -6z"/>
<path d="M2322 5024 c-7 -8 -24 -14 -37 -14 -14 0 -25 -4 -25 -10 0 -13 29
-12 62 3 17 7 25 16 20 23 -5 9 -11 8 -20 -2z"/>
<path d="M2376 5011 c-4 -7 -5 -15 -2 -18 9 -9 19 4 14 18 -4 11 -6 11 -12 0z"/>
<path d="M2330 4970 c0 -5 5 -10 11 -10 5 0 7 5 4 10 -3 6 -8 10 -11 10 -2 0
-4 -4 -4 -10z"/>
<path d="M2360 4970 c0 -5 5 -10 11 -10 5 0 7 5 4 10 -3 6 -8 10 -11 10 -2 0
-4 -4 -4 -10z"/>
<path d="M2228 4948 c17 -8 26 -8 34 0 9 9 4 12 -22 11 -33 0 -34 -1 -12 -11z"/>
<path d="M2313 4939 c14 -8 22 -8 30 0 8 8 3 11 -18 11 -26 -1 -28 -2 -12 -11z"/>
<path d="M2295 4910 c3 -5 -3 -10 -13 -10 -11 0 -22 -6 -25 -14 -4 -10 5 -14
34 -14 42 -1 48 8 23 32 -17 18 -28 21 -19 6z"/>
<path d="M2365 4850 c3 -5 8 -10 11 -10 2 0 4 5 4 10 0 6 -5 10 -11 10 -5 0
-7 -4 -4 -10z"/>
<path d="M2208 4783 c7 -3 16 -2 19 1 4 3 -2 6 -13 5 -11 0 -14 -3 -6 -6z"/>
<path d="M8461 4478 c-1 -16 -6 -28 -12 -28 -6 0 -9 -6 -6 -12 6 -20 30 -15
33 6 1 10 -1 28 -6 40 -8 19 -9 19 -9 -6z"/>
<path d="M8435 4400 c-3 -5 -1 -10 4 -10 6 0 11 5 11 10 0 6 -2 10 -4 10 -3 0
-8 -4 -11 -10z"/>
<path d="M8406 4387 c3 -10 9 -15 12 -12 3 3 0 11 -7 18 -10 9 -11 8 -5 -6z"/>
<path d="M8436 4365 c-3 -10 -2 -23 4 -29 15 -15 24 1 13 26 -9 20 -10 20 -17
3z"/>
<path d="M8410 4310 c-11 -7 -7 -10 17 -10 17 0 35 5 38 10 8 13 -35 13 -55 0z"/>
<path d="M8412 4274 c-5 -9 -7 -36 -4 -60 2 -24 0 -44 -5 -44 -11 0 -12 -27
-12 -275 -1 -99 -4 -185 -9 -192 -5 -9 -23 0 -62 29 -30 23 -120 91 -200 150
-174 131 -223 168 -304 232 -33 26 -73 54 -87 61 -31 17 -29 18 -221 -207
-113 -131 -175 -218 -471 -661 -21 -32 -36 -64 -34 -71 3 -8 49 -44 102 -82
204 -144 450 -317 524 -366 14 -10 32 -18 39 -18 7 0 96 48 197 108 l184 107
92 180 c51 99 100 192 110 207 11 14 19 31 19 37 0 6 10 28 23 49 12 20 34 60
47 89 40 84 42 80 45 -97 1 -58 3 -201 4 -318 1 -134 5 -211 11 -207 6 3 10 1
10 -4 0 -6 -5 -11 -11 -11 -7 0 -9 -17 -5 -52 19 -159 21 -196 10 -248 -8 -42
-8 -50 0 -118 3 -29 2 -51 -2 -48 -10 6 -8 -64 3 -88 6 -13 5 -21 -3 -24 -7
-2 -12 -8 -12 -13 0 -6 3 -8 8 -6 4 3 7 -32 6 -76 0 -45 3 -91 7 -102 9 -23
10 -21 14 23 3 40 13 52 25 32 8 -13 10 -12 10 3 0 9 5 17 11 17 7 0 10 44 8
138 -1 75 -1 229 0 341 1 117 -2 208 -8 214 -5 5 -6 21 -1 38 16 56 19 1139 3
1297 -5 46 -8 52 -29 52 -12 0 -27 -7 -32 -16z m43 -44 c3 -5 1 -10 -4 -10 -6
0 -11 5 -11 10 0 6 2 10 4 10 3 0 8 -4 11 -10z"/>
<path d="M1204 4087 c-66 -51 -150 -114 -185 -141 -35 -28 -133 -101 -216
-165 -84 -63 -153 -118 -153 -122 0 -5 46 -95 101 -201 56 -106 133 -254 171
-328 38 -74 74 -140 81 -147 13 -13 342 -205 369 -215 11 -5 51 17 120 64 57
39 105 75 106 79 2 5 9 9 16 9 7 0 21 8 32 18 11 10 33 27 49 38 17 10 35 23
40 27 18 16 249 178 283 199 37 23 38 30 15 66 -10 15 -22 35 -28 44 -5 9 -59
89 -120 178 -60 90 -137 203 -170 251 -33 49 -81 113 -106 142 -25 28 -94 107
-153 175 -59 67 -112 122 -119 122 -7 -1 -66 -42 -133 -93z"/>
<path d="M3202 3181 c2 -7 7 -12 11 -12 12 1 9 15 -3 20 -7 2 -11 -2 -8 -8z"/>
<path d="M3505 2971 c-2 -5 4 -11 15 -14 11 -3 20 -2 20 3 0 12 -28 21 -35 11z"/>
<path d="M3455 2949 c-11 -17 1 -21 15 -4 8 9 8 15 2 15 -6 0 -14 -5 -17 -11z"/>
<path d="M3430 2911 c0 -5 -8 -11 -17 -14 -17 -4 -17 -4 1 -12 12 -5 21 -3 27
6 12 19 11 29 -1 29 -5 0 -10 -4 -10 -9z"/>
<path d="M3460 2910 c0 -5 5 -10 10 -10 6 0 10 5 10 10 0 6 -4 10 -10 10 -5 0
-10 -4 -10 -10z"/>
<path d="M5889 2884 c-5 -15 -7 -29 -4 -32 7 -7 34 29 35 46 0 22 -20 13 -31
-14z"/>
<path d="M3528 2846 c-50 -13 -49 -32 1 -31 29 0 41 5 45 17 6 24 -2 26 -46
14z"/>
<path d="M3426 2784 c-9 -23 -8 -24 22 -24 24 1 25 2 10 14 -10 7 -15 16 -11
19 3 4 2 7 -4 7 -6 0 -14 -7 -17 -16z"/>
<path d="M3511 2791 c-17 -11 -5 -17 37 -19 21 -2 31 1 27 8 -3 6 -10 8 -15 5
-5 -3 -11 -1 -15 5 -8 12 -16 12 -34 1z"/>
<path d="M2715 2771 c-6 -11 9 -23 19 -14 9 9 7 23 -3 23 -6 0 -12 -4 -16 -9z"/>
<path d="M3473 2742 c-16 -5 -20 -11 -14 -21 7 -10 13 -11 30 -2 12 7 19 16
16 22 -4 5 -7 9 -8 8 -1 -1 -12 -4 -24 -7z"/>
<path d="M2775 2710 c-3 -5 -1 -10 4 -10 6 0 11 5 11 10 0 6 -2 10 -4 10 -3 0
-8 -4 -11 -10z"/>
<path d="M1841 2604 c-6 -15 -9 -29 -6 -32 7 -7 34 29 35 46 0 21 -16 13 -29
-14z"/>
<path d="M2860 2600 c0 -5 7 -10 16 -10 8 0 12 5 9 10 -3 6 -10 10 -16 10 -5
0 -9 -4 -9 -10z"/>
<path d="M3060 2595 c0 -13 4 -14 20 -5 11 6 20 13 20 15 0 3 -9 5 -20 5 -11
0 -20 -7 -20 -15z"/>
<path d="M6230 2529 c0 -5 5 -7 10 -4 6 3 10 8 10 11 0 2 -4 4 -10 4 -5 0 -10
-5 -10 -11z"/>
<path d="M2687 2519 c7 -7 15 -10 18 -7 3 3 -2 9 -12 12 -14 6 -15 5 -6 -5z"/>
<path d="M2856 2509 c-9 -11 -16 -24 -16 -29 0 -17 40 -11 47 8 4 9 11 20 16
23 5 3 0 9 -11 11 -12 3 -26 -2 -36 -13z m24 -19 c0 -5 -5 -10 -11 -10 -5 0
-7 5 -4 10 3 6 8 10 11 10 2 0 4 -4 4 -10z"/>
<path d="M2775 2451 c-3 -5 -1 -12 5 -16 5 -3 10 1 10 9 0 18 -6 21 -15 7z"/>
<path d="M5977 2453 c-14 -14 -6 -19 23 -15 16 2 27 8 24 13 -6 11 -38 12 -47
2z"/>
<path d="M5923 2417 c4 -10 7 -21 7 -23 0 -9 39 -3 46 8 5 8 2 9 -9 5 -9 -3
-24 1 -34 11 -16 16 -16 16 -10 -1z"/>
<path d="M2997 2401 c-3 -12 -2 -23 3 -26 11 -7 20 19 10 34 -5 9 -9 7 -13 -8z"/>
<path d="M6075 2390 c-3 -5 3 -10 15 -10 12 0 18 5 15 10 -3 6 -10 10 -15 10
-5 0 -12 -4 -15 -10z"/>
<path d="M2728 2373 c7 -3 16 -2 19 1 4 3 -2 6 -13 5 -11 0 -14 -3 -6 -6z"/>
<path d="M2896 2366 c3 -9 11 -16 16 -16 13 0 5 23 -10 28 -7 2 -10 -2 -6 -12z"/>
<path d="M5935 2370 c-3 -5 1 -10 9 -10 9 0 16 5 16 10 0 6 -4 10 -9 10 -6 0
-13 -4 -16 -10z"/>
<path d="M2774 2356 c-7 -17 2 -36 17 -36 6 0 7 5 4 10 -3 6 -2 10 4 10 5 0
11 -5 13 -11 2 -7 10 -10 18 -7 9 3 3 12 -18 27 -27 19 -33 20 -38 7z"/>
<path d="M2639 2273 c-1 -5 0 -16 1 -26 1 -14 -4 -18 -21 -15 -12 2 -24 -3
-26 -9 -7 -19 42 -16 57 2 12 14 15 14 36 0 26 -17 54 -20 54 -5 0 5 -16 12
-35 16 -40 7 -54 22 -34 35 10 6 8 9 -8 9 -13 0 -24 -3 -24 -7z"/>
<path d="M6600 2259 c0 -5 5 -7 10 -4 6 3 10 8 10 11 0 2 -4 4 -10 4 -5 0 -10
-5 -10 -11z"/>
<path d="M2655 2180 c3 -5 8 -10 11 -10 2 0 4 5 4 10 0 6 -5 10 -11 10 -5 0
-7 -4 -4 -10z"/>
<path d="M6335 2170 c-4 -6 9 -10 32 -9 30 0 34 2 18 9 -27 12 -43 12 -50 0z"/>
<path d="M8440 2150 c0 -5 5 -10 10 -10 6 0 10 5 10 10 0 6 -4 10 -10 10 -5 0
-10 -4 -10 -10z"/>
<path d="M2420 2131 c0 -13 28 -33 33 -23 3 4 -3 13 -14 20 -10 7 -19 8 -19 3z"/>
<path d="M2626 2116 c21 -15 30 -14 19 3 -3 6 -14 11 -23 11 -13 0 -13 -2 4
-14z"/>
<path d="M2562 2078 c5 -15 28 -23 28 -10 0 5 -7 13 -16 16 -10 4 -14 1 -12
-6z"/>
<path d="M2376 2051 c-4 -7 -5 -15 -2 -18 9 -9 19 4 14 18 -4 11 -6 11 -12 0z"/>
<path d="M2467 2044 c-8 -8 1 -24 14 -24 5 0 9 7 9 15 0 15 -12 20 -23 9z"/>
<path d="M2518 2023 c7 -3 16 -2 19 1 4 3 -2 6 -13 5 -11 0 -14 -3 -6 -6z"/>
<path d="M2270 2011 c0 -5 9 -11 20 -14 24 -6 27 8 4 17 -21 8 -24 8 -24 -3z"/>
<path d="M8430 2011 c0 -5 7 -11 14 -14 10 -4 13 -1 9 9 -6 15 -23 19 -23 5z"/>
<path d="M2370 1970 c0 -5 7 -10 16 -10 8 0 12 5 9 10 -3 6 -10 10 -16 10 -5
0 -9 -4 -9 -10z"/>
<path d="M8410 1955 c-8 -10 -9 -15 -1 -15 6 0 10 -3 10 -7 -4 -25 3 -43 16
-43 15 0 16 3 19 50 1 29 -25 38 -44 15z"/>
<path d="M2320 1947 c0 -18 24 -39 33 -30 12 11 8 22 -13 33 -16 8 -20 8 -20
-3z"/>
<path d="M6580 1950 c0 -5 5 -10 10 -10 6 0 10 5 10 10 0 6 -4 10 -10 10 -5 0
-10 -4 -10 -10z"/>
<path d="M1158 1933 c7 -3 16 -2 19 1 4 3 -2 6 -13 5 -11 0 -14 -3 -6 -6z"/>
<path d="M2506 1921 c-17 -19 -17 -19 3 -14 12 3 21 12 21 19 0 18 -4 18 -24
-5z"/>
<path d="M1420 1920 c0 -5 5 -10 10 -10 6 0 10 5 10 10 0 6 -4 10 -10 10 -5 0
-10 -4 -10 -10z"/>
<path d="M2196 1912 c-15 -14 -4 -32 19 -32 30 0 34 25 6 33 -11 3 -22 2 -25
-1z"/>
<path d="M2455 1910 c3 -5 8 -10 11 -10 2 0 4 5 4 10 0 6 -5 10 -11 10 -5 0
-7 -4 -4 -10z"/>
<path d="M1996 1895 c-4 -12 -1 -16 14 -13 24 3 28 22 7 26 -8 2 -17 -4 -21
-13z"/>
<path d="M1825 1870 c-3 -5 1 -10 9 -10 9 0 16 5 16 10 0 6 -4 10 -9 10 -6 0
-13 -4 -16 -10z"/>
<path d="M1534 1804 c3 -9 6 -18 6 -20 0 -2 4 -4 9 -4 5 0 7 9 4 20 -3 11 -10
20 -15 20 -6 0 -7 -7 -4 -16z"/>
<path d="M2212 1808 c3 -7 15 -15 28 -16 21 -3 22 -2 11 12 -16 19 -44 21 -39
4z"/>
<path d="M6826 1757 c-17 -13 -17 -14 -1 -30 24 -25 43 -20 63 18 9 18 7 21
-17 23 -15 1 -35 -4 -45 -11z"/>
<path d="M1765 1690 c-3 -5 -2 -10 4 -10 5 0 13 5 16 10 3 6 2 10 -4 10 -5 0
-13 -4 -16 -10z"/>
<path d="M7186 1633 c-11 -11 -6 -23 9 -23 8 0 15 4 15 9 0 13 -16 22 -24 14z"/>
<path d="M1470 1555 c0 -8 5 -15 10 -15 6 0 10 7 10 15 0 8 -4 15 -10 15 -5 0
-10 -7 -10 -15z"/>
<path d="M1806 1555 c-3 -9 0 -15 9 -15 16 0 20 16 6 24 -5 3 -11 -1 -15 -9z"/>
<path d="M1715 1490 c3 -5 8 -10 11 -10 2 0 4 5 4 10 0 6 -5 10 -11 10 -5 0
-7 -4 -4 -10z"/>
<path d="M1575 1480 c3 -5 11 -10 16 -10 6 0 7 5 4 10 -3 6 -11 10 -16 10 -6
0 -7 -4 -4 -10z"/>
<path d="M1505 1370 c3 -5 8 -10 11 -10 2 0 4 5 4 10 0 6 -5 10 -11 10 -5 0
-7 -4 -4 -10z"/>
<path d="M7837 984 c-7 -13 -13 -63 -7 -66 3 -1 16 5 30 15 l24 17 -21 21
c-11 12 -23 17 -26 13z"/>
<path d="M760 883 c0 -25 15 -38 25 -22 4 6 0 18 -9 27 -15 15 -16 15 -16 -5z"/>
<path d="M690 841 c0 -12 5 -21 10 -21 6 0 10 6 10 14 0 8 -4 18 -10 21 -5 3
-10 -3 -10 -14z"/>
<path d="M890 824 c0 -15 22 -44 31 -39 11 7 -7 45 -21 45 -6 0 -10 -3 -10 -6z"/>
<path d="M800 790 c13 -23 20 -26 20 -6 0 8 -7 16 -15 20 -13 4 -14 2 -5 -14z"/>
<path d="M8630 796 c0 -9 5 -16 10 -16 6 0 10 4 10 9 0 6 -4 13 -10 16 -5 3
-10 -1 -10 -9z"/>
<path d="M8735 800 c4 -6 11 -8 16 -5 14 9 11 15 -7 15 -8 0 -12 -5 -9 -10z"/>
<path d="M845 770 c-3 -5 1 -10 10 -10 9 0 13 5 10 10 -3 6 -8 10 -10 10 -2 0
-7 -4 -10 -10z"/>
<path d="M8680 770 c0 -5 5 -10 11 -10 5 0 7 5 4 10 -3 6 -8 10 -11 10 -2 0
-4 -4 -4 -10z"/>
<path d="M556 745 c-3 -8 -1 -15 4 -15 13 0 22 18 11 24 -5 3 -11 -1 -15 -9z"/>
<path d="M8390 740 c0 -5 5 -10 10 -10 6 0 10 5 10 10 0 6 -4 10 -10 10 -5 0
-10 -4 -10 -10z"/>
<path d="M8770 734 c0 -20 14 -23 35 -8 10 8 17 14 14 15 -32 6 -49 3 -49 -7z"/>
<path d="M826 721 c-7 -11 5 -80 15 -87 5 -3 9 4 9 14 0 11 7 22 15 26 13 5
13 9 3 26 -14 22 -35 33 -42 21z"/>
<path d="M8446 711 c-4 -5 1 -8 9 -7 21 3 31 16 12 16 -9 0 -18 -4 -21 -9z"/>
<path d="M8650 712 c0 -11 41 -34 48 -27 4 4 -2 13 -12 21 -22 15 -36 18 -36
6z"/>
<path d="M8978 713 c7 -3 16 -2 19 1 4 3 -2 6 -13 5 -11 0 -14 -3 -6 -6z"/>
<path d="M624 656 c-4 -10 -2 -22 4 -28 8 -8 13 -7 18 6 4 10 2 22 -4 28 -8 8
-13 7 -18 -6z"/>
<path d="M8453 645 c-3 -9 -3 -18 0 -21 9 -9 27 6 27 22 0 19 -19 18 -27 -1z"/>
<path d="M380 631 c0 -12 5 -21 10 -21 6 0 10 6 10 14 0 8 -4 18 -10 21 -5 3
-10 -3 -10 -14z"/>
<path d="M8393 623 c-7 -2 -13 -9 -13 -15 0 -12 41 -6 41 7 1 12 -11 15 -28 8z"/>
<path d="M8876 615 c-4 -11 2 -15 20 -15 23 0 24 2 10 15 -8 8 -17 15 -19 15
-3 0 -7 -7 -11 -15z"/>
<path d="M199 607 c-1 -7 -1 -15 0 -19 0 -4 -8 -12 -19 -18 -15 -8 -19 -18
-15 -38 5 -26 5 -26 -5 -4 -5 13 -8 27 -6 31 6 9 -60 5 -75 -5 -6 -3 -9 -15
-6 -25 3 -12 -2 -20 -15 -25 -11 -3 -20 -4 -21 -2 -1 1 -8 13 -14 25 -18 32
-17 49 2 33 21 -18 53 14 35 35 -16 20 -30 19 -46 -2 -9 -13 -13 -54 -14 -136
l0 -118 34 6 c28 6 35 4 39 -12 4 -16 5 -16 6 0 1 15 18 21 59 20 16 -1 15 12
-3 27 -24 20 -18 26 21 22 24 -3 34 -1 30 6 -3 6 2 26 13 45 10 18 17 46 16
62 -2 16 3 41 11 56 8 16 14 32 14 36 0 14 -40 13 -41 0z m-119 -227 c0 -5 -5
-10 -11 -10 -5 0 -7 5 -4 10 3 6 8 10 11 10 2 0 4 -4 4 -10z"/>
<path d="M8770 611 c0 -6 5 -13 10 -16 6 -3 10 1 10 9 0 9 -4 16 -10 16 -5 0
-10 -4 -10 -9z"/>
<path d="M700 596 c0 -15 37 -32 47 -22 3 3 3 12 0 21 -8 19 -47 20 -47 1z"/>
<path d="M8530 601 c0 -16 30 -33 47 -26 17 6 17 7 -1 21 -22 16 -46 19 -46 5z"/>
<path d="M8650 600 c0 -5 7 -10 15 -10 8 0 15 5 15 10 0 6 -7 10 -15 10 -8 0
-15 -4 -15 -10z"/>
<path d="M8818 573 c6 -2 18 -2 25 0 6 3 1 5 -13 5 -14 0 -19 -2 -12 -5z"/>
<path d="M8450 560 c0 -5 5 -10 11 -10 5 0 7 5 4 10 -3 6 -8 10 -11 10 -2 0
-4 -4 -4 -10z"/>
<path d="M8906 561 c-32 -12 -2 -22 46 -15 33 6 38 9 23 15 -25 10 -45 10 -69
0z"/>
<path d="M802 543 c2 -10 11 -19 21 -21 23 -5 21 10 -4 26 -18 12 -20 11 -17
-5z"/>
<path d="M230 534 c0 -8 5 -12 10 -9 6 3 10 10 10 16 0 5 -4 9 -10 9 -5 0 -10
-7 -10 -16z"/>
<path d="M8636 535 c7 -17 20 -20 28 -6 3 5 -1 12 -10 15 -22 9 -24 8 -18 -9z"/>
<path d="M8248 533 c7 -3 16 -2 19 1 4 3 -2 6 -13 5 -11 0 -14 -3 -6 -6z"/>
<path d="M445 509 c-6 -19 0 -38 9 -28 10 12 16 49 7 49 -5 0 -13 -9 -16 -21z"/>
<path d="M8280 515 c0 -8 0 -18 -1 -22 0 -4 5 -9 13 -11 9 -2 8 0 -2 7 -12 9
-12 11 3 17 9 3 14 10 11 15 -8 14 -24 10 -24 -6z"/>
<path d="M625 511 c-3 -6 4 -15 15 -21 20 -11 21 -10 10 9 -12 23 -16 25 -25
12z"/>
<path d="M8455 510 c-3 -5 1 -10 9 -10 9 0 16 5 16 10 0 6 -4 10 -9 10 -6 0
-13 -4 -16 -10z"/>
<path d="M8979 513 c-17 -4 -32 -40 -23 -55 3 -4 14 -8 25 -8 15 0 19 7 19 35
0 19 -1 34 -2 34 -2 -1 -10 -3 -19 -6z m11 -23 c0 -5 -4 -10 -10 -10 -5 0 -10
5 -10 10 0 6 5 10 10 10 6 0 10 -4 10 -10z"/>
<path d="M8760 500 c-12 -8 -10 -10 8 -10 13 0 20 4 17 10 -7 12 -6 12 -25 0z"/>
<path d="M303 488 c-30 -15 -29 -38 1 -38 19 0 25 -6 28 -30 5 -36 -21 -67
-40 -48 -7 7 -13 23 -13 37 -1 17 -3 20 -6 9 -5 -21 -19 -23 -26 -5 -3 7 -6 5
-6 -5 -1 -11 -13 -21 -33 -26 -40 -10 -47 -34 -16 -48 13 -6 18 -9 12 -8 -6 1
-17 -1 -24 -6 -10 -6 -7 -14 14 -34 14 -15 26 -31 26 -36 0 -14 44 -24 48 -11
5 15 32 14 32 -1 0 -7 5 -5 11 5 7 12 23 17 60 17 36 0 49 4 46 13 -4 13 -49
15 -86 3 -15 -5 -21 -5 -17 2 3 6 20 13 36 17 35 8 41 28 8 23 -16 -2 -24 3
-26 16 -3 11 0 16 7 12 7 -5 11 5 11 28 0 30 4 35 30 41 17 4 30 11 30 17 0 6
-6 8 -14 5 -8 -3 -17 0 -20 8 -3 8 3 17 15 20 29 10 11 28 -22 21 -16 -3 -29
-1 -29 4 0 12 -9 12 -37 -2z m-17 -185 c-10 -10 -19 5 -10 18 6 11 8 11 12 0
2 -7 1 -15 -2 -18z"/>
<path d="M8915 489 c-11 -17 1 -21 15 -4 8 9 8 15 2 15 -6 0 -14 -5 -17 -11z"/>
<path d="M8475 480 c3 -5 10 -10 16 -10 5 0 9 5 9 10 0 6 -7 10 -16 10 -8 0
-12 -4 -9 -10z"/>
<path d="M8785 471 c-26 -6 -27 -8 -11 -14 13 -5 25 -2 35 8 8 8 13 14 11 14
-3 -1 -18 -4 -35 -8z"/>
<path d="M8841 438 c-6 -15 -5 -25 3 -28 19 -8 13 -34 -9 -38 -11 -2 -24 -8
-30 -14 -7 -6 -4 -7 6 -3 12 4 18 -1 21 -19 3 -14 2 -23 -3 -21 -4 3 -10 1
-14 -5 -3 -5 -17 -7 -29 -4 -26 6 -44 -20 -22 -33 18 -11 29 -60 14 -65 -6 -2
-8 -10 -4 -16 10 -17 26 -15 26 3 0 12 7 14 33 9 52 -10 70 -10 74 3 2 6 -4
13 -14 16 -17 5 -17 5 0 6 10 0 16 5 13 10 -4 5 -22 5 -43 1 -46 -11 -53 -6
-26 20 12 10 24 16 27 13 3 -4 6 -1 6 5 0 7 5 12 11 12 6 0 9 -7 5 -15 -6 -16
10 -20 38 -9 23 9 20 26 -4 19 -14 -4 -20 -2 -20 8 0 16 -26 31 -33 19 -2 -4
-2 -2 -1 5 2 7 -1 15 -6 18 -18 11 -10 25 13 25 12 1 33 7 47 15 32 18 40 18
40 0 0 -9 9 -15 21 -15 15 0 20 5 17 23 -3 20 -8 22 -58 19 -60 -3 -109 19
-81 37 9 6 10 11 2 15 -6 4 -15 -3 -20 -16z m149 -58 c0 -5 -4 -10 -10 -10 -5
0 -10 5 -10 10 0 6 5 10 10 10 6 0 10 -4 10 -10z"/>
<path d="M8905 441 c-3 -5 -1 -12 5 -16 5 -3 10 1 10 9 0 18 -6 21 -15 7z"/>
<path d="M8190 421 c0 -8 6 -11 16 -7 9 3 20 6 25 6 5 0 9 4 9 9 0 5 -11 8
-25 7 -14 0 -25 -7 -25 -15z"/>
<path d="M297 424 c-8 -8 3 -34 14 -34 11 0 12 27 0 34 -4 3 -11 3 -14 0z"/>
<path d="M775 420 c3 -5 8 -10 11 -10 2 0 4 5 4 10 0 6 -5 10 -11 10 -5 0 -7
-4 -4 -10z"/>
<path d="M8605 420 c3 -5 8 -10 11 -10 2 0 4 5 4 10 0 6 -5 10 -11 10 -5 0 -7
-4 -4 -10z"/>
<path d="M8695 410 c-3 -5 -17 -10 -31 -10 -13 0 -24 -4 -24 -8 0 -5 9 -8 19
-7 22 1 72 34 54 34 -6 1 -15 -3 -18 -9z"/>
<path d="M8736 385 c-4 -10 1 -15 16 -15 17 0 18 2 8 15 -7 8 -14 15 -15 15
-2 0 -5 -7 -9 -15z"/>
<path d="M385 377 c-8 -19 -2 -31 13 -26 5 2 6 13 2 24 -7 19 -8 19 -15 2z"/>
<path d="M8217 370 c-3 -12 0 -20 8 -20 8 0 11 8 8 20 -3 11 -7 20 -8 20 -1 0
-5 -9 -8 -20z"/>
<path d="M8635 354 c-11 -8 -25 -12 -32 -10 -8 3 -13 -3 -13 -15 0 -15 5 -19
16 -15 9 3 19 6 24 6 4 0 15 11 24 25 18 28 11 32 -19 9z"/>
<path d="M8470 349 c0 -5 5 -7 10 -4 6 3 10 8 10 11 0 2 -4 4 -10 4 -5 0 -10
-5 -10 -11z"/>
<path d="M605 341 c7 -12 -22 -41 -40 -41 -8 0 -17 -4 -20 -10 -4 -6 4 -9 17
-7 16 1 23 -3 22 -15 -1 -13 3 -14 27 -6 24 8 27 13 19 28 -6 10 -10 28 -10
39 0 12 -5 21 -11 21 -5 0 -8 -4 -4 -9z"/>
<path d="M8427 330 c-3 -11 -18 -25 -34 -32 -27 -11 -27 -12 -5 -15 12 -3 22
-11 22 -19 0 -19 26 -18 34 2 3 8 11 12 17 8 8 -5 8 -1 0 14 -6 11 -11 30 -11
41 0 27 -16 27 -23 1z"/>
<path d="M8955 341 c-3 -2 -5 -9 -5 -15 0 -6 5 -4 10 4 5 8 10 10 10 5 0 -6
-5 -16 -12 -23 -9 -9 -6 -12 14 -12 20 0 26 5 26 23 0 16 -6 23 -20 23 -10 0
-21 -2 -23 -5z"/>
<path d="M101 316 c-8 -9 -8 -16 -2 -20 5 -4 12 -2 16 4 4 6 11 8 16 5 5 -4 9
1 9 9 0 20 -24 21 -39 2z"/>
<path d="M8898 323 c7 -3 16 -2 19 1 4 3 -2 6 -13 5 -11 0 -14 -3 -6 -6z"/>
<path d="M488 313 c7 -3 16 -2 19 1 4 3 -2 6 -13 5 -11 0 -14 -3 -6 -6z"/>
<path d="M636 313 c-3 -3 2 -15 10 -28 10 -16 21 -21 39 -17 14 2 25 6 25 9 0
18 -62 48 -74 36z"/>
<path d="M8460 313 c1 -22 30 -44 53 -41 22 2 24 6 14 19 -13 17 -67 35 -67
22z"/>
<path d="M8598 302 c-20 -4 -24 -17 -8 -27 6 -3 10 -1 10 5 0 7 8 9 19 5 11
-3 22 -2 25 3 7 11 -21 20 -46 14z"/>
<path d="M0 179 c0 -64 4 -98 10 -94 5 3 10 2 10 -4 0 -5 9 -13 20 -16 26 -8
26 -25 0 -25 -11 0 -20 7 -20 15 0 8 -4 15 -10 15 -17 0 -11 -18 12 -34 12 -9
30 -16 40 -16 10 0 18 -4 18 -10 0 -5 4 -10 10 -10 5 0 7 7 4 15 -8 19 4 19
36 0 35 -20 61 -18 67 5 3 11 12 20 20 20 9 0 13 6 10 15 -8 19 10 30 28 15
10 -9 20 -4 44 19 26 25 27 30 13 36 -9 3 -18 1 -20 -4 -2 -6 -17 -11 -32 -11
-16 0 -32 -4 -35 -10 -8 -13 -35 -13 -35 0 0 6 7 10 15 10 8 0 15 4 15 9 0 15
74 39 103 34 16 -3 27 -1 27 6 0 11 -6 13 -45 15 -13 1 -20 8 -20 21 0 16 -6
20 -32 19 -22 -1 -33 3 -33 12 0 8 -6 11 -15 8 -8 -4 -15 -1 -15 5 0 6 5 11
12 11 9 0 8 3 -1 13 -11 10 -14 9 -18 -1 -3 -6 -10 -9 -16 -5 -29 18 -107 28
-107 14 0 -7 -4 -9 -10 -6 -5 3 -10 1 -10 -4 0 -6 -4 -11 -10 -11 -5 0 -10 7
-10 15 0 8 -4 15 -10 15 -6 0 -10 -40 -10 -101z m165 41 c3 -5 1 -10 -4 -10
-6 0 -11 5 -11 10 0 6 2 10 4 10 3 0 8 -4 11 -10z m35 -64 c0 -3 -4 -8 -10
-11 -5 -3 -10 -1 -10 4 0 6 5 11 10 11 6 0 10 -2 10 -4z m-136 -22 c23 -9 20
-24 -4 -24 -11 0 -20 7 -20 15 0 17 2 18 24 9z m83 -39 c2 -1 -17 -6 -42 -12
-50 -11 -51 -11 -29 11 13 13 55 14 71 1z m47 -23 c3 -5 -1 -9 -9 -9 -8 0 -12
4 -9 9 3 4 7 8 9 8 2 0 6 -4 9 -8z m-4 -42 c0 -5 -4 -10 -10 -10 -5 0 -10 5
-10 10 0 6 5 10 10 10 6 0 10 -4 10 -10z"/>
<path d="M8660 270 c0 -6 11 -8 28 -4 39 10 40 14 4 14 -18 0 -32 -5 -32 -10z"/>
<path d="M8936 254 c-23 -17 -20 -19 24 -19 31 0 40 4 40 17 0 20 -38 21 -64
2z"/>
<path d="M505 250 c-3 -5 -1 -10 4 -10 6 0 11 5 11 10 0 6 -2 10 -4 10 -3 0
-8 -4 -11 -10z"/>
<path d="M8550 248 c0 -4 16 -10 35 -14 33 -6 48 -28 24 -36 -14 -5 -2 -48 12
-48 6 0 7 9 4 20 -5 15 0 22 19 30 31 11 34 30 7 30 -11 0 -22 4 -25 9 -7 11
-76 20 -76 9z"/>
<path d="M8690 233 c0 -24 11 -27 44 -14 14 5 16 10 8 15 -7 4 -17 4 -23 0 -6
-3 -15 0 -20 7 -6 10 -9 8 -9 -8z"/>
<path d="M333 233 c9 -2 23 -2 30 0 6 3 -1 5 -18 5 -16 0 -22 -2 -12 -5z"/>
<path d="M676 224 c-10 -25 1 -29 14 -5 6 12 7 21 1 21 -5 0 -12 -7 -15 -16z"/>
<path d="M8263 209 c6 -16 15 -29 20 -29 5 0 6 7 3 16 -3 9 -6 19 -6 24 0 4
-6 10 -14 13 -11 5 -12 0 -3 -24z"/>
<path d="M433 205 c13 -27 33 -35 23 -9 -3 9 -6 20 -6 25 0 5 -6 9 -14 9 -11
0 -12 -5 -3 -25z"/>
<path d="M8500 209 c0 -5 5 -7 10 -4 6 3 10 8 10 11 0 2 -4 4 -10 4 -5 0 -10
-5 -10 -11z"/>
<path d="M306 201 c-3 -5 10 -11 29 -13 24 -3 35 0 35 9 0 15 -56 18 -64 4z"/>
<path d="M530 190 c0 -11 5 -20 10 -20 6 0 10 9 10 20 0 11 -4 20 -10 20 -5 0
-10 -9 -10 -20z"/>
<path d="M736 191 c-4 -7 -5 -15 -2 -18 9 -9 19 4 14 18 -4 11 -6 11 -12 0z"/>
<path d="M8360 186 c0 -9 5 -16 10 -16 6 0 10 4 10 9 0 6 -4 13 -10 16 -5 3
-10 -1 -10 -9z"/>
<path d="M8560 180 c0 -5 5 -10 10 -10 6 0 10 5 10 10 0 6 -4 10 -10 10 -5 0
-10 -4 -10 -10z"/>
<path d="M8435 160 c-3 -6 -3 -19 0 -30 4 -13 2 -20 -6 -20 -7 0 -10 -3 -6 -6
12 -12 42 16 42 40 1 26 -18 35 -30 16z"/>
<path d="M8753 163 c-7 -2 -13 -9 -13 -15 0 -6 7 -7 16 -4 10 4 18 -1 21 -13
3 -11 12 -22 22 -24 14 -4 14 -5 -1 -6 -10 0 -18 -8 -18 -17 0 -10 6 -14 15
-10 8 3 15 1 15 -4 0 -6 -4 -10 -10 -10 -5 0 -10 -4 -10 -10 0 -15 42 -12 63
5 11 7 24 12 30 10 46 -14 77 -14 77 0 0 8 -3 14 -7 14 -23 -4 -53 2 -53 10 0
5 14 12 30 16 31 7 35 12 22 31 -10 15 -65 24 -82 13 -12 -7 -10 -9 8 -9 13 0
22 -6 22 -16 0 -12 -6 -15 -22 -9 -13 4 -39 10 -58 14 -23 4 -31 9 -22 14 27
18 -11 34 -45 20z"/>
<path d="M575 139 c-16 -10 -34 -19 -40 -18 -5 0 -4 3 3 6 25 10 11 19 -30 19
-24 1 -35 -1 -25 -3 10 -3 17 -10 16 -16 -5 -45 26 -50 68 -11 24 22 29 23 39
10 15 -22 19 -20 20 9 2 29 -10 31 -51 4z"/>
<path d="M8330 120 c0 -17 5 -21 28 -18 16 2 27 9 27 18 0 9 -11 16 -27 18
-23 3 -28 -1 -28 -18z m45 0 c-3 -5 -11 -10 -16 -10 -6 0 -7 5 -4 10 3 6 11
10 16 10 6 0 7 -4 4 -10z"/>
<path d="M8522 120 c-9 -9 -25 -19 -34 -23 -10 -3 -18 -12 -18 -18 0 -8 4 -9
13 0 8 6 17 8 20 4 4 -3 7 -1 7 5 0 8 7 9 27 1 18 -7 30 -6 37 1 7 7 5 10 -8
10 -9 0 -14 5 -11 10 4 7 14 5 28 -5 12 -8 32 -15 45 -15 18 0 22 -4 18 -18
-5 -16 -2 -18 26 -14 32 5 32 5 8 15 -15 5 -20 11 -12 14 27 10 10 24 -24 18
-31 -4 -35 -3 -25 9 18 21 -74 27 -97 6z"/>
<path d="M8982 110 c7 -10 14 -18 15 -16 6 6 -9 36 -18 36 -5 0 -4 -9 3 -20z"/>
<path d="M8701 111 c-9 -6 -5 -8 13 -8 15 0 29 3 32 8 7 11 -27 11 -45 0z"/>
<path d="M310 80 c0 -5 5 -10 11 -10 5 0 7 5 4 10 -3 6 -8 10 -11 10 -2 0 -4
-4 -4 -10z"/>
<path d="M349 80 c-1 -8 -1 -20 0 -27 1 -6 -3 -14 -9 -18 -17 -10 -11 -28 7
-21 9 4 21 1 26 -6 6 -9 7 -6 4 10 -4 15 0 22 10 22 10 0 14 -6 10 -20 -3 -13
0 -20 10 -20 10 0 13 6 9 16 -5 13 -2 14 11 9 32 -14 83 -18 83 -6 0 6 -7 11
-16 11 -14 0 -14 3 -4 15 11 13 10 14 -5 9 -13 -5 -16 -4 -11 4 4 7 2 12 -3
12 -6 0 -11 -4 -11 -10 0 -5 -11 -10 -25 -10 -17 0 -25 6 -26 18 0 9 -3 12 -5
5 -6 -13 -35 -6 -46 11 -5 7 -8 6 -9 -4z m118 -46 c-3 -3 -12 -4 -19 -1 -8 3
-5 6 6 6 11 1 17 -2 13 -5z"/>
<path d="M606 74 c-6 -15 41 -41 53 -28 3 4 0 9 -7 11 -7 3 -19 11 -26 19 -12
11 -15 11 -20 -2z"/>
<path d="M8740 80 c20 -13 33 -13 25 0 -3 6 -14 10 -23 10 -15 0 -15 -2 -2
-10z"/>
<path d="M8430 66 c0 -15 48 -28 55 -16 3 5 -9 13 -25 19 -24 8 -30 7 -30 -3z"/>
<path d="M8976 71 c-4 -7 -5 -15 -2 -18 9 -9 19 4 14 18 -4 11 -6 11 -12 0z"/>
<path d="M231 26 c-9 -11 -6 -12 14 -8 14 2 25 8 25 13 0 14 -26 11 -39 -5z"/>
<path d="M290 33 c1 -18 18 -35 24 -24 4 6 4 16 1 21 -7 12 -25 13 -25 3z"/>
<path d="M614 25 c11 -8 29 -15 40 -15 16 1 12 5 -13 15 -42 19 -52 19 -27 0z"/>
<path d="M8442 26 c10 -7 15 -16 11 -19 -3 -4 -1 -7 5 -7 7 0 12 4 12 8 0 12
-22 32 -34 32 -6 0 -3 -7 6 -14z"/>
<path d="M8730 29 c0 -5 5 -7 10 -4 6 3 10 8 10 11 0 2 -4 4 -10 4 -5 0 -10
-5 -10 -11z"/>
<path d="M530 20 c0 -5 7 -10 15 -10 8 0 15 5 15 10 0 6 -7 10 -15 10 -8 0
-15 -4 -15 -10z"/>
<path d="M8280 20 c0 -5 14 -10 30 -10 17 0 30 5 30 10 0 6 -13 10 -30 10 -16
0 -30 -4 -30 -10z"/>
<path d="M8638 23 c-24 -6 -23 -23 2 -23 11 0 20 7 20 15 0 8 -1 14 -2 14 -2
-1 -11 -3 -20 -6z"/>
<path d="M0 10 c0 -5 10 -10 23 -10 18 0 19 2 7 10 -19 13 -30 13 -30 0z"/>
<path d="M8225 10 c-3 -5 1 -10 9 -10 9 0 16 5 16 10 0 6 -4 10 -9 10 -6 0
-13 -4 -16 -10z"/>
<path d="M8765 10 c-18 -8 -17 -9 8 -9 16 -1 26 3 22 9 -3 6 -7 10 -8 9 -1 0
-11 -4 -22 -9z"/>
<path d="M8820 10 c-13 -8 -13 -10 2 -10 9 0 20 5 23 10 8 13 -5 13 -25 0z"/>
</g>
</svg>
